<svg width="492" height="75" viewBox="0 0 492 75" fill="none" xmlns="http://www.w3.org/2000/svg">
<rect y="0.997559" width="492" height="75" fill="#40C85A"/>
<rect y="0" width="492" height="40" fill="#303BCF"/>
<path d="M-97.176 75.9976H-70.536L-102.72 46.7656L-71.544 22.4296H-96.96L-123.312 43.5976V22.4296H-143.76V75.9976H-123.312V52.0216L-97.176 75.9976ZM-38.0078 77.0056C-5.75175 77.0056 -0.711745 61.8856 -0.711745 54.9016V53.7496H-21.8797C-22.1677 54.9736 -23.7517 62.5336 -39.5197 62.5336C-53.9197 62.5336 -57.5197 54.9736 -57.5197 49.2136V48.3496C-57.5197 42.3736 -54.3517 35.8216 -39.5917 35.8216C-24.0397 35.8216 -22.3837 42.5896 -21.9517 44.0296H-0.711745V43.0936C-0.711745 36.1816 -5.46374 21.4216 -38.0078 21.4216H-40.8157C-74.2237 21.4216 -78.6877 37.7656 -78.6877 47.9896V50.0776C-78.6877 60.2296 -73.7197 77.0056 -40.8157 77.0056H-38.0078ZM24.3026 75.9976H44.7506V37.0456H67.8626V22.4296H1.19063V37.0456H24.3026V75.9976ZM106.119 53.9656H88.3348L97.1188 35.5336L106.119 53.9656ZM116.847 75.9976H139.239L111.231 22.4296H83.7268L57.2308 75.9976H77.9668L82.0708 67.3576H112.671L116.847 75.9976ZM151.428 75.9976H171.876V37.0456H194.988V22.4296H128.316V37.0456H151.428V75.9976ZM253.718 75.9976H274.166V22.4296H253.718L220.094 56.1256V22.4296H199.646V75.9976H220.094L253.718 42.3736V75.9976Z" fill="white"/>
<path d="M278.558 22.4296L285.11 58.7176H297.062L303.686 22.4296H278.558ZM301.31 61.9576H280.934V75.9976H301.31V61.9576Z" fill="#111E24"/>
<path d="M394.824 75.9976H421.464L389.28 46.7656L420.456 22.4296H395.04L368.688 43.5976V22.4296H348.24V75.9976H368.688V52.0216L394.824 75.9976ZM453.992 77.0056C486.248 77.0056 491.288 61.8856 491.288 54.9016V53.7496H470.12C469.832 54.9736 468.248 62.5336 452.48 62.5336C438.08 62.5336 434.48 54.9736 434.48 49.2136V48.3496C434.48 42.3736 437.648 35.8216 452.408 35.8216C467.96 35.8216 469.616 42.5896 470.048 44.0296H491.288V43.0936C491.288 36.1816 486.536 21.4216 453.992 21.4216H451.184C417.776 21.4216 413.312 37.7656 413.312 47.9896V50.0776C413.312 60.2296 418.28 77.0056 451.184 77.0056H453.992ZM516.303 75.9976H536.751V37.0456H559.863V22.4296H493.191V37.0456H516.303V75.9976ZM598.119 53.9656H580.335L589.119 35.5336L598.119 53.9656ZM608.847 75.9976H631.239L603.231 22.4296H575.727L549.231 75.9976H569.967L574.071 67.3576H604.671L608.847 75.9976ZM643.428 75.9976H663.876V37.0456H686.988V22.4296H620.316V37.0456H643.428V75.9976ZM745.718 75.9976H766.166V22.4296H745.718L712.094 56.1256V22.4296H691.646V75.9976H712.094L745.718 42.3736V75.9976Z" fill="white"/>
<path d="M770.558 22.4296L777.11 58.7176H789.062L795.686 22.4296H770.558ZM793.31 61.9576H772.934V75.9976H793.31V61.9576Z" fill="#111E24"/>
<path d="M886.824 75.9976H913.464L881.28 46.7656L912.456 22.4296H887.04L860.688 43.5976V22.4296H840.24V75.9976H860.688V52.0216L886.824 75.9976ZM945.992 77.0056C978.248 77.0056 983.288 61.8856 983.288 54.9016V53.7496H962.12C961.832 54.9736 960.248 62.5336 944.48 62.5336C930.08 62.5336 926.48 54.9736 926.48 49.2136V48.3496C926.48 42.3736 929.648 35.8216 944.408 35.8216C959.96 35.8216 961.616 42.5896 962.048 44.0296H983.288V43.0936C983.288 36.1816 978.536 21.4216 945.992 21.4216H943.184C909.776 21.4216 905.312 37.7656 905.312 47.9896V50.0776C905.312 60.2296 910.28 77.0056 943.184 77.0056H945.992ZM1008.3 75.9976H1028.75V37.0456H1051.86V22.4296H985.191V37.0456H1008.3V75.9976ZM1090.12 53.9656H1072.33L1081.12 35.5336L1090.12 53.9656ZM1100.85 75.9976H1123.24L1095.23 22.4296H1067.73L1041.23 75.9976H1061.97L1066.07 67.3576H1096.67L1100.85 75.9976ZM1135.43 75.9976H1155.88V37.0456H1178.99V22.4296H1112.32V37.0456H1135.43V75.9976ZM1237.72 75.9976H1258.17V22.4296H1237.72L1204.09 56.1256V22.4296H1183.65V75.9976H1204.09L1237.72 42.3736V75.9976Z" fill="white"/>
<path d="M1262.56 22.4296L1269.11 58.7176H1281.06L1287.69 22.4296H1262.56ZM1285.31 61.9576H1264.93V75.9976H1285.31V61.9576Z" fill="#111E24"/>
<path d="M1378.82 75.9976H1405.46L1373.28 46.7656L1404.46 22.4296H1379.04L1352.69 43.5976V22.4296H1332.24V75.9976H1352.69V52.0216L1378.82 75.9976ZM1437.99 77.0056C1470.25 77.0056 1475.29 61.8856 1475.29 54.9016V53.7496H1454.12C1453.83 54.9736 1452.25 62.5336 1436.48 62.5336C1422.08 62.5336 1418.48 54.9736 1418.48 49.2136V48.3496C1418.48 42.3736 1421.65 35.8216 1436.41 35.8216C1451.96 35.8216 1453.62 42.5896 1454.05 44.0296H1475.29V43.0936C1475.29 36.1816 1470.54 21.4216 1437.99 21.4216H1435.18C1401.78 21.4216 1397.31 37.7656 1397.31 47.9896V50.0776C1397.31 60.2296 1402.28 77.0056 1435.18 77.0056H1437.99ZM1500.3 75.9976H1520.75V37.0456H1543.86V22.4296H1477.19V37.0456H1500.3V75.9976ZM1582.12 53.9656H1564.33L1573.12 35.5336L1582.12 53.9656ZM1592.85 75.9976H1615.24L1587.23 22.4296H1559.73L1533.23 75.9976H1553.97L1558.07 67.3576H1588.67L1592.85 75.9976ZM1627.43 75.9976H1647.88V37.0456H1670.99V22.4296H1604.32V37.0456H1627.43V75.9976ZM1729.72 75.9976H1750.17V22.4296H1729.72L1696.09 56.1256V22.4296H1675.65V75.9976H1696.09L1729.72 42.3736V75.9976Z" fill="white"/>
<path d="M1754.56 22.4296L1761.11 58.7176H1773.06L1779.69 22.4296H1754.56ZM1777.31 61.9576H1756.93V75.9976H1777.31V61.9576Z" fill="#111E24"/>
<path d="M1870.82 75.9976H1897.46L1865.28 46.7656L1896.46 22.4296H1871.04L1844.69 43.5976V22.4296H1824.24V75.9976H1844.69V52.0216L1870.82 75.9976ZM1929.99 77.0056C1962.25 77.0056 1967.29 61.8856 1967.29 54.9016V53.7496H1946.12C1945.83 54.9736 1944.25 62.5336 1928.48 62.5336C1914.08 62.5336 1910.48 54.9736 1910.48 49.2136V48.3496C1910.48 42.3736 1913.65 35.8216 1928.41 35.8216C1943.96 35.8216 1945.62 42.5896 1946.05 44.0296H1967.29V43.0936C1967.29 36.1816 1962.54 21.4216 1929.99 21.4216H1927.18C1893.78 21.4216 1889.31 37.7656 1889.31 47.9896V50.0776C1889.31 60.2296 1894.28 77.0056 1927.18 77.0056H1929.99ZM1992.3 75.9976H2012.75V37.0456H2035.86V22.4296H1969.19V37.0456H1992.3V75.9976ZM2074.12 53.9656H2056.33L2065.12 35.5336L2074.12 53.9656ZM2084.85 75.9976H2107.24L2079.23 22.4296H2051.73L2025.23 75.9976H2045.97L2050.07 67.3576H2080.67L2084.85 75.9976ZM2119.43 75.9976H2139.88V37.0456H2162.99V22.4296H2096.32V37.0456H2119.43V75.9976ZM2221.72 75.9976H2242.17V22.4296H2221.72L2188.09 56.1256V22.4296H2167.65V75.9976H2188.09L2221.72 42.3736V75.9976Z" fill="white"/>
</svg>
