<svg width="137" height="28" viewBox="0 0 137 28" fill="none" xmlns="http://www.w3.org/2000/svg">
<path d="M1.74429 3.95142C10.679 3.15431 19.1139 2.03813 28.3128 2.13455C40.6304 2.26366 53.0089 3.49603 65.2991 3.50577C71.5386 3.51075 77.7032 3.82091 83.9459 4.13351C93.6301 4.61844 103.295 4.5142 112.978 4.60374C119.153 4.66083 125.313 5.02469 131.485 5.33377C132.755 5.39733 134.023 5.46087 135.292 5.5244C136.352 5.57746 130.593 6.01911 130.177 6.0551C106.495 8.10535 82.4335 7.84175 58.7614 9.73526C54.3617 10.0872 49.9855 10.5217 45.583 10.8675C42.2997 11.1255 45.5525 10.6418 46.7735 10.49C60.9859 8.72417 75.9864 10.8163 90.4042 11.5383C93.2716 11.6819 102.003 11.2649 95.2244 12.8725C82.4804 15.8945 69.8002 18.1334 56.0389 18.6474C53.7795 18.7318 47.0079 18.6837 49.2636 18.9201C54.1313 19.4301 59.2275 19.5341 64.1121 19.8603C80.9031 20.9817 100.841 20.6355 116.334 25.8193" stroke="#303BCF" stroke-width="3" stroke-linecap="round"/>
</svg>
