<svg width="64" height="56" viewBox="0 0 64 56" fill="none" xmlns="http://www.w3.org/2000/svg">
<path d="M24.0357 51.2127C24.7012 49.1184 25.2202 47.3308 25.8382 45.5806C26.8741 42.6081 28.0295 39.7186 30.2573 37.3638C32.52 34.9769 35.2553 34.1498 38.3063 35.1778C40.1787 35.8118 41.8741 36.9523 43.6098 37.927C44.2865 38.3117 44.8658 38.8934 45.7857 39.6117C45.4976 37.903 45.2504 36.5644 45.0594 35.2169C44.5786 31.9261 43.9632 28.6523 43.7063 25.3483C43.3315 20.8226 45.7146 18.2172 50.2786 18.0002C52.0683 17.9164 53.8962 18.2696 55.709 18.4435C56.2538 18.4991 56.7843 18.6322 57.4272 18.7476C55.8636 16.0047 54.3383 13.4197 52.9262 10.7946C49.6353 4.66583 53.7622 1.18213 58.5805 0.752141C59.8691 0.636844 61.212 0.836443 62.5111 1.01187C63.376 1.15856 64.0668 1.74479 63.8942 2.69796C63.7475 3.56286 62.9574 3.77643 62.1316 3.76534C61.3166 3.76582 60.4927 3.71007 59.6963 3.80063C58.7653 3.90806 57.8226 4.02619 56.929 4.31374C54.4175 5.12748 53.6194 6.63592 54.5688 9.10826C55.2349 10.8546 56.1614 12.511 57.055 14.155C57.8862 15.6847 58.7968 17.1842 59.7074 18.6836C60.1671 19.4615 60.6037 20.2607 60.0994 21.1334C59.5228 22.1372 58.5116 22.0181 57.5781 21.9133C56.3886 21.7869 55.2286 21.4832 54.0364 21.4237C52.5329 21.3293 51.0171 21.2679 49.5376 21.4089C47.5311 21.6067 46.7156 22.4446 46.645 24.4625C46.578 26.3913 46.6207 28.3692 46.8668 30.2883C47.4149 34.3968 48.0985 38.4661 48.7929 42.5471C48.9547 43.5138 48.9106 44.327 48.0515 44.8616C47.238 45.3757 46.4936 45.0106 45.8126 44.4583C44.6022 43.4714 43.4167 42.4186 42.1589 41.4968C41.0527 40.6927 39.9019 39.8869 38.6752 39.3014C35.4007 37.7285 33.1424 38.3515 30.9384 41.2209C29.2769 43.3753 28.0852 45.7833 27.2002 48.3377C26.5563 50.176 26.0337 52.0529 25.4674 53.9056C25.1708 54.8872 24.8618 55.9019 23.6186 55.9969C22.4433 56.0719 21.8534 55.1997 21.3197 54.3182C21.1005 53.9408 20.9385 53.5323 20.7648 53.1345C20.429 52.3282 20.0371 51.5308 19.7807 50.6942C17.8327 44.4859 13.1229 42.2408 7.14035 41.9203C6.03735 41.8644 4.90913 42.1536 3.79707 42.3208C3.24684 42.3989 2.70071 42.6447 2.15347 42.6561C1.76179 42.6737 1.17593 42.5271 1.03091 42.2533C0.864469 41.9563 1.02176 41.3821 1.1585 41.0416C1.46698 40.306 2.25067 39.7126 2.95328 39.4507C4.34721 38.9378 5.82772 38.4954 7.29377 38.4096C10.5398 38.2061 13.6453 38.9907 16.6168 40.328C19.1496 41.469 20.8099 43.4789 21.9384 45.9362C22.6545 47.5506 23.2351 49.2041 24.0357 51.2127Z" fill="#111E24"/>
</svg>
