<svg width="758" height="428" viewBox="13 0 758 428" fill="none" xmlns="http://www.w3.org/2000/svg">
<path d="M650.968 88.8288C638.824 62.1529 607.844 -18.6595 620.585 7.92435C646.812 62.6475 669.483 117.616 688.62 173.394C714.599 249.119 767.692 334.687 751.789 414.77C742.131 463.403 680.898 328.245 653.144 283.496C607.27 209.53 556.397 136.546 509.478 62.7864C491.657 34.7721 539.316 171.043 544.997 188.933C560.805 238.704 618.366 304.985 596.625 358.196C576.409 407.678 506.493 274.372 475.888 229.359C447.505 187.615 404.411 56.6075 401.27 102.186C399.097 133.721 406.494 165.317 409.077 196.528C420.397 333.308 253.246 99.9252 209.46 74.2193C141.713 34.4455 226.433 179.576 235.077 232.239C236.737 242.348 251.892 325.998 200.032 280.198C145.44 231.985 119.868 166.164 3.31512 142.426" stroke="#D1FC55" stroke-width="5" stroke-linecap="round"/>
</svg>
