<svg width="143" height="143" viewBox="0 0 143 143" fill="none" xmlns="http://www.w3.org/2000/svg">
<path d="M58.5499 130.784C59.6363 125.586 60.4459 121.161 61.5027 116.802C63.2646 109.402 65.3341 102.172 70.1128 95.9648C74.9675 89.6719 81.3408 87.0132 88.9276 88.7368C93.5844 89.8022 97.9399 92.1285 102.352 94.0462C104.073 94.8052 105.608 96.0618 107.996 97.5632C106.884 93.526 105.962 90.3684 105.172 87.1757C103.21 79.3822 100.928 71.6624 99.5007 63.7822C97.4903 52.9939 102.581 46.1463 113.5 44.5061C117.782 43.8659 122.263 44.267 126.664 44.2407C127.987 44.2408 129.295 44.4309 130.869 44.5507C126.438 38.3397 122.137 32.499 118.099 26.534C108.686 12.6065 117.753 3.21993 129.231 1.00529C132.301 0.412288 135.578 0.563021 138.745 0.66637C140.86 0.807038 142.664 2.04709 142.483 4.38089C142.342 6.49614 140.495 7.20324 138.507 7.37897C136.548 7.57986 134.553 7.64778 132.661 8.06069C130.449 8.54713 128.212 9.06215 126.134 9.97249C120.295 12.5443 118.747 16.3664 121.635 22.0774C123.664 26.1125 126.298 29.8677 128.849 33.6009C131.222 37.0747 133.779 40.4564 136.335 43.8381C137.631 45.5955 138.877 47.4098 137.878 49.6316C136.738 52.1861 134.278 52.1476 132.008 52.1244C129.117 52.1121 126.254 51.6662 123.373 51.8154C119.736 51.9569 116.076 52.1808 112.554 52.8824C107.779 53.8498 106.024 56.064 106.349 60.9325C106.66 65.586 107.248 70.3305 108.309 74.884C110.634 84.6267 113.275 94.2422 115.944 103.883C116.57 106.167 116.664 108.133 114.729 109.629C112.9 111.064 111.021 110.369 109.248 109.208C106.096 107.132 102.988 104.892 99.7385 102.984C96.8819 101.322 93.9177 99.6669 90.8251 98.5598C82.5673 95.5809 77.2911 97.6321 72.6957 105.071C69.2293 110.657 66.9545 116.738 65.4529 123.096C64.3555 127.674 63.5589 132.314 62.6517 136.907C62.1793 139.339 61.6849 141.855 58.7196 142.388C55.9123 142.856 54.2804 140.904 52.7815 138.915C52.162 138.062 51.6722 137.119 51.1573 136.206C50.1524 134.35 49.0147 132.529 48.1932 130.58C41.9885 116.132 30.1154 111.889 15.6543 112.585C12.9889 112.721 10.3474 113.693 7.7149 114.367C6.41123 114.69 5.15854 115.414 3.8457 115.576C2.90839 115.714 1.46403 115.506 1.04827 114.883C0.575314 114.209 0.812732 112.791 1.05802 111.938C1.61935 110.094 3.35796 108.476 4.98292 107.674C8.20835 106.099 11.6592 104.673 15.1627 104.107C22.9166 102.822 30.5747 103.947 38.0462 106.434C44.4149 108.556 48.8991 112.981 52.2145 118.612C54.3317 122.318 56.1328 126.151 58.5499 130.784Z" fill="#111E24"/>
</svg>
