<svg width="274" height="232" viewBox="0 0 274 232" fill="none" xmlns="http://www.w3.org/2000/svg">
<path d="M176.326 20.7148C173.224 29.5676 170.785 37.1303 167.928 44.5207C163.135 57.0738 157.843 69.2582 148.042 79.0265C138.087 88.9273 126.312 92.113 113.423 87.3441C105.513 84.4038 98.422 79.3247 91.1383 74.9482C88.2992 73.2219 85.9004 70.667 82.0653 67.4867C83.0802 74.8135 83.9669 80.5564 84.613 86.33C86.2516 100.432 88.4667 114.478 89.1484 128.608C90.1802 147.966 79.6847 158.784 60.1834 159.137C52.5361 159.27 44.7811 157.534 37.068 156.565C34.7502 156.259 32.5034 155.624 29.7746 155.052C36.1023 166.951 42.2865 178.173 47.9822 189.551C61.2553 216.115 43.2091 230.461 22.596 231.692C17.0832 232.022 11.3783 231.002 5.85706 230.09C2.18504 229.356 -0.689042 226.768 0.166991 222.722C0.901385 219.05 4.29972 218.238 7.82188 218.389C11.2995 218.489 14.8082 218.831 18.2176 218.544C22.2037 218.202 26.2406 217.817 30.0898 216.702C40.9083 213.545 44.5026 207.208 40.762 196.54C38.1388 189.005 34.3931 181.821 30.7866 174.694C27.4318 168.063 23.7345 161.551 20.0372 155.038C18.1733 151.662 16.4108 148.197 18.672 144.536C21.258 140.325 25.5578 140.96 29.5281 141.525C34.5877 142.213 39.4991 143.655 44.5788 144.058C50.9819 144.65 57.4423 145.102 63.7729 144.686C72.359 144.093 75.9439 140.62 76.4981 132.019C77.026 123.797 77.092 115.353 76.2828 107.133C74.4595 89.5339 72.053 72.0847 69.6023 54.5846C69.0331 50.4394 69.3234 46.9749 73.0558 44.8016C76.5915 42.71 79.7219 44.3612 82.5585 46.8034C87.5994 51.1661 92.5257 55.8073 97.7768 59.8981C102.396 63.4678 107.205 67.0505 112.366 69.703C126.141 76.8252 135.855 74.4502 145.619 62.4832C152.979 53.4989 158.366 43.3738 162.463 32.5855C165.441 24.822 167.906 16.8793 170.555 9.04507C171.943 4.89368 173.389 0.60289 178.706 0.353509C183.73 0.181005 186.138 3.97656 188.304 7.80472C189.192 9.44264 189.832 11.206 190.523 12.9251C191.855 16.4076 193.427 19.8592 194.417 23.461C201.95 50.1958 221.764 60.3662 247.251 62.4844C251.95 62.861 256.801 61.7686 261.567 61.195C263.924 60.9306 266.285 59.9503 268.622 59.9705C270.295 59.9445 272.777 60.6432 273.361 61.8298C274.034 63.118 273.291 65.5482 272.665 66.984C271.256 70.0841 267.838 72.518 264.807 73.5471C258.795 75.5609 252.422 77.2629 246.156 77.4448C232.28 77.9058 219.128 74.1687 206.616 68.0895C195.952 62.9035 189.12 54.1192 184.613 43.4925C181.76 36.5142 179.49 29.3857 176.326 20.7148Z" fill="#111E24"/>
</svg>
