<svg width="62" height="53" viewBox="0 0 62 53" fill="none" xmlns="http://www.w3.org/2000/svg">
<path d="M39.7844 5.11244C39.0946 7.08112 38.5522 8.76289 37.917 10.4063C36.8512 13.1979 35.6742 15.9074 33.4946 18.0797C31.2811 20.2814 28.6625 20.9898 25.7962 19.9293C24.0373 19.2755 22.4604 18.146 20.8406 17.1727C20.2093 16.7888 19.6758 16.2207 18.823 15.5135C19.0487 17.1428 19.2459 18.4199 19.3896 19.7038C19.7539 22.8397 20.2465 25.9633 20.3981 29.1055C20.6276 33.4103 18.2936 35.8159 13.957 35.8945C12.2564 35.924 10.5318 35.5379 8.81663 35.3224C8.3012 35.2544 7.80155 35.1133 7.19474 34.9859C8.60186 37.6322 9.97709 40.1275 11.2437 42.6578C14.1953 48.5649 10.1823 51.7554 5.59838 52.0289C4.37246 52.1024 3.10382 51.8755 1.87601 51.6728C1.05944 51.5095 0.420306 50.934 0.610669 50.0344C0.773982 49.2178 1.5297 49.0372 2.31294 49.0708C3.08628 49.0931 3.86654 49.1689 4.62473 49.1052C5.51112 49.0293 6.40885 48.9435 7.26482 48.6955C9.67061 47.9935 10.4699 46.5844 9.63807 44.212C9.05474 42.5364 8.22179 40.9389 7.41978 39.354C6.67375 37.8794 5.85155 36.4312 5.02935 34.983C4.61486 34.2321 4.22293 33.4616 4.72577 32.6475C5.30083 31.7111 6.257 31.8524 7.13991 31.9779C8.26507 32.131 9.35724 32.4515 10.4869 32.5412C11.9108 32.6727 13.3474 32.7733 14.7552 32.6808C16.6645 32.549 17.4617 31.7768 17.585 29.864C17.7024 28.0357 17.717 26.1578 17.5371 24.3299C17.1316 20.4163 16.5965 16.536 16.0515 12.6443C15.9249 11.7225 15.9895 10.9521 16.8195 10.4688C17.6058 10.0037 18.3019 10.3709 18.9327 10.914C20.0537 11.8841 21.1492 12.9162 22.3169 13.8259C23.3441 14.6198 24.4136 15.4165 25.5613 16.0063C28.6244 17.5901 30.7846 17.062 32.9559 14.4008C34.5926 12.4029 35.7905 10.1513 36.7015 7.75224C37.3638 6.02582 37.9121 4.25953 38.5011 2.51737C38.8099 1.5942 39.1314 0.64002 40.3136 0.584566C41.431 0.546206 41.9664 1.39025 42.4481 2.24155C42.6456 2.60578 42.788 2.99791 42.9417 3.38019C43.2378 4.15462 43.5874 4.92218 43.8074 5.72314C45.4825 11.6684 49.8889 13.93 55.5566 14.4011C56.6016 14.4848 57.6802 14.2419 58.74 14.1143C59.2643 14.0555 59.7894 13.8375 60.309 13.842C60.6811 13.8362 61.2329 13.9916 61.3629 14.2555C61.5125 14.542 61.3473 15.0824 61.208 15.4017C60.8948 16.0911 60.1346 16.6323 59.4606 16.8612C58.1237 17.309 56.7065 17.6875 55.313 17.7279C52.2273 17.8304 49.3025 16.9994 46.5203 15.6475C44.1489 14.4943 42.6295 12.5408 41.6273 10.1777C40.9928 8.62589 40.488 7.04067 39.7844 5.11244Z" fill="#111E24"/>
</svg>
