<svg width="439" height="9" viewBox="0 0 439 9" fill="none" xmlns="http://www.w3.org/2000/svg">
<path fill-rule="evenodd" clip-rule="evenodd" d="M77.5262 0.652403C61.6489 0.933909 39.2476 1.41786 27.7481 1.72744C7.31739 2.27716 6.87056 2.33035 8.34157 4.05485C9.56657 5.49341 8.87625 5.81999 4.60383 5.81999C0.602517 5.81999 -0.449273 6.2138 0.160715 7.48243C0.778233 8.75844 2.42494 9.10496 7.23958 8.97345C10.6911 8.87961 29.1816 8.65278 48.3296 8.46954C67.4776 8.28631 87.2457 7.95234 92.2588 7.72773C131.564 5.96185 310.14 4.67106 334.824 5.97441C348.96 6.71992 360.013 6.82706 379.381 6.40591C383.869 6.30838 399.12 6.49605 413.27 6.82262C435.452 7.33465 439 7.26225 439 6.29877C439 5.68404 437.023 5.00429 434.608 4.78854C427.325 4.13908 370.094 2.9244 326.36 2.49068C296.052 2.19071 283.881 1.79837 279.992 0.995973C275.576 0.0856973 261.032 -0.0724192 190.554 0.0243715C144.266 0.0879135 93.4033 0.370159 77.5262 0.652403Z" fill="#303BCF"/>
</svg>
