<svg width="300" height="6" viewBox="0 0 300 6" fill="none" xmlns="http://www.w3.org/2000/svg">
<path fill-rule="evenodd" clip-rule="evenodd" d="M52.9792 0.425336C42.1291 0.608728 26.8207 0.924006 18.9623 1.12569C5.0005 1.48381 4.69515 1.51846 5.70039 2.64191C6.53752 3.57909 6.06577 3.79184 3.14612 3.79184C0.411743 3.79184 -0.30702 4.0484 0.109828 4.87487C0.531822 5.70614 1.65714 5.93189 4.94732 5.84621C7.30602 5.78508 19.9419 5.63731 33.0271 5.51793C46.1123 5.39857 59.6212 5.181 63.047 5.03467C89.9071 3.88426 211.941 3.04335 228.809 3.89244C238.469 4.37812 246.023 4.44792 259.258 4.17355C262.325 4.11001 272.747 4.23227 282.417 4.44502C297.576 4.77859 300 4.73143 300 4.10375C300 3.70328 298.649 3.26044 296.998 3.11989C292.022 2.69679 252.911 1.90547 223.025 1.62291C202.314 1.42749 193.996 1.1719 191.338 0.64916C188.321 0.0561469 178.382 -0.0468605 130.219 0.0161953C98.5871 0.0575907 63.8291 0.241464 52.9792 0.425336Z" fill="#303BCF"/>
</svg>
