<svg width="300" height="6" viewBox="0 0 439 9" fill="none" xmlns="http://www.w3.org/2000/svg">
<path fill-rule="evenodd" clip-rule="evenodd" d="M361.474 8.34809C377.351 8.06658 399.752 7.58263 411.252 7.27305C431.683 6.72333 432.129 6.67014 430.658 4.94564C429.433 3.50708 430.124 3.1805 434.396 3.1805C438.397 3.1805 439.449 2.78669 438.839 1.51806C438.222 0.242046 436.575 -0.104473 431.76 0.0270367C428.309 0.120876 409.818 0.347707 390.67 0.530947C371.522 0.714177 351.754 1.04815 346.741 1.27276C307.436 3.03864 128.86 4.32943 104.176 3.02608C90.0401 2.28057 78.9868 2.17343 59.6186 2.59458C55.1313 2.69211 39.8802 2.50444 25.7302 2.17787C3.54761 1.66584 0 1.73824 0 2.70172C0 3.31645 1.97668 3.9962 4.39236 4.21195C11.675 4.86141 68.9064 6.07609 112.64 6.50981C142.948 6.80978 155.119 7.20212 159.008 8.00452C163.424 8.91479 177.968 9.07291 248.446 8.97612C294.734 8.91257 345.597 8.63033 361.474 8.34809Z" fill="#FC6B65"/>
</svg>
