<svg width="60" height="60" viewBox="0 0 60 60" fill="none" xmlns="http://www.w3.org/2000/svg">
<circle cx="30" cy="30" r="30" fill="#303BCF"/>
    <g transform="translate(10,10)" clip-path="url(#clip0_200_1756)">
        <path fill-rule="evenodd" clip-rule="evenodd" d="M8.90454 20.1421C8.90454 19.4978 9.42687 18.9754 10.0712 18.9754H29.8702C30.5145 18.9754 31.0369 19.4978 31.0369 20.1421C31.0369 20.7864 30.5145 21.3088 29.8702 21.3088H10.0712C9.42687 21.3088 8.90454 20.7864 8.90454 20.1421Z" fill="white"/>
        <path fill-rule="evenodd" clip-rule="evenodd" d="M19.9707 31.2083C19.3264 31.2083 18.804 30.6859 18.804 30.0416L18.804 10.2426C18.804 9.59829 19.3264 9.07595 19.9707 9.07595C20.615 9.07595 21.1374 9.59829 21.1374 10.2426L21.1374 30.0416C21.1374 30.6859 20.615 31.2083 19.9707 31.2083Z" fill="white"/>
    </g>
    <defs>
        <clipPath id="clip0_200_1756">
            <rect width="28" height="28" fill="white" transform="translate(19.9707 39.9411) rotate(-135)"/>
        </clipPath>
    </defs>
</svg>
