<svg width="964" height="16" viewBox="0 0 964 16" fill="none" xmlns="http://www.w3.org/2000/svg">
<path d="M2 8.18318C9.60089 8.16471 49.0536 6.51489 49.7894 8.87014C50.6709 11.693 46.6304 13.6195 64.0927 11.9386C90.8495 9.363 114.918 5.74064 143.261 3.87819C153.515 3.20443 166.618 5.12786 175.86 5.91619C212.169 9.01339 250.779 8.59536 289.179 8.59536C308.491 8.59536 326.747 7.87737 345.839 7.7481C382.798 7.49784 420.198 7.75875 457.05 7.33592C490.544 6.95165 523.208 5.82491 556.845 7.17563C575.525 7.92583 592.447 9.33048 610.509 10.473C628.156 11.5895 646.946 11.1092 664.617 12.4882C684.628 14.0492 707.834 14.9328 727.377 12.4424C739.102 10.9481 751.914 6.88987 766.406 6.55736C776.845 6.31783 787.398 6.62804 797.898 6.35127C852.694 4.9066 906.875 2.89925 962 2.00049" stroke="#D1FC55" stroke-width="3" stroke-linecap="round"/>
</svg>
