<svg width="142" height="134" viewBox="0 0 142 134" fill="none" xmlns="http://www.w3.org/2000/svg">
<g filter="url(#filter0_d_163_1758)">
<path fill-rule="evenodd" clip-rule="evenodd" d="M92.3522 29.687C92.0148 29.5915 90.7396 29.1426 89.5189 28.6894C88.298 28.2363 86.4002 27.5469 85.3013 27.1572C82.8325 26.2818 80.0094 25.2616 77.833 24.458C76.9234 24.1223 75.5388 23.6282 74.7562 23.3599C70.9521 22.0561 69.5835 21.5699 68.7645 21.2311C68.2742 21.0284 67.6 20.7886 67.266 20.6984C66.9321 20.608 65.6552 20.1622 64.4286 19.7076C63.2019 19.2529 61.3381 18.5728 60.2868 18.1963C59.2355 17.8197 57.4781 17.1895 56.3815 16.7959C55.2849 16.4023 53.4903 15.7584 52.3935 15.365C51.2967 14.9716 49.6533 14.3786 48.7414 14.047C45.8433 12.9932 43.0393 12.1351 42.4358 12.1172C42.1145 12.1077 41.7948 12.0689 41.7252 12.031C41.3863 11.8459 38.638 12.0524 37.3916 12.3567C34.9707 12.9475 33.1383 13.8921 31.2617 15.5162C30.4456 16.2224 30.2164 16.5515 28.9266 18.8677C27.7863 20.9157 27.3551 21.8588 26.7992 23.5216C26.4157 24.6686 25.8514 26.358 25.5451 27.2759C25.2387 28.1938 24.8434 29.3095 24.6665 29.7552C24.4896 30.2009 24.0807 31.3536 23.7578 32.3166C22.77 35.2642 22.2211 36.8412 21.7677 38.036C20.2671 41.9906 20.0569 44.8535 21.0347 48.0147C21.6727 50.0773 21.8741 50.5067 22.9036 51.9996C24.1633 53.8264 25.6225 55.1339 27.6878 56.2872C28.6186 56.807 29.6853 57.3083 30.0582 57.4014C30.431 57.4942 32.2227 58.123 34.0396 58.7984C35.8566 59.4738 37.8752 60.1988 38.5255 60.4093C39.1758 60.6198 40.0732 60.9416 40.5197 61.1243C40.9663 61.307 41.677 61.5613 42.0991 61.6892C42.5213 61.8171 43.8354 62.2767 45.0194 62.7104C46.2033 63.1441 48.0315 63.8082 49.082 64.1861C50.1326 64.5641 51.9252 65.2116 53.0656 65.6251C54.206 66.0385 55.484 66.4822 55.9058 66.6107C57.3551 67.053 57.4433 67.1518 57.715 68.6431C57.8528 69.3998 58.0241 70.2457 58.0958 70.5234C58.1674 70.8009 58.4441 72.201 58.7107 73.6347C58.9773 75.0685 59.2359 76.3526 59.2849 76.4889C59.334 76.6251 59.4693 77.2785 59.585 77.9419C59.7012 78.6048 59.8143 79.2014 59.8363 79.2684C59.8585 79.3349 60.0655 80.3197 60.296 81.4571C60.5269 82.5939 60.7474 83.5154 60.7867 83.5039C61.2065 83.3859 64.5416 80.8452 66.9041 78.8434C67.4087 78.4162 68.619 77.3972 69.5948 76.5793C70.57 75.7612 71.7809 74.7425 72.2853 74.3155C73.8383 73.001 73.7424 73.0288 75.0565 73.5158C77.2506 74.3292 78.5588 74.6418 80.2384 74.7547C84.5539 75.0443 88.8498 73.2719 91.4518 70.1281C92.1813 69.2462 94.2895 65.1847 94.4825 64.289C94.6037 63.7261 95.0279 62.5054 96.6997 57.91C96.9961 57.0955 97.3388 56.0764 97.4616 55.6457C97.5843 55.215 97.9285 54.2044 98.2263 53.3999C100.469 47.3416 101.104 45.1996 101.195 43.3742C101.289 41.4908 101.205 40.7568 100.688 38.9373C99.8961 36.1545 98.5008 33.9896 96.2559 32.0596C94.8654 30.8644 93.4306 29.9924 92.3522 29.687Z" fill="white"/>
</g>
<path d="M79.9443 56.8569C80.0812 55.6999 80.1718 54.5587 80.2167 53.4334C80.2621 52.3085 80.2846 50.9744 80.2848 49.4315C80.2936 47.6828 80.321 46.2219 80.3669 45.0488C80.4179 43.8615 80.5416 42.6275 80.7381 41.347C80.954 40.0574 81.2819 38.7914 81.7221 37.549C82.0054 36.7494 82.4633 36.0919 83.0959 35.5767C83.7478 35.0522 84.5062 34.7262 85.371 34.5987C86.2502 34.4763 87.1753 34.587 88.1463 34.931C89.0602 35.2548 89.8179 35.7242 90.4201 36.3394C91.0357 36.9592 91.4349 37.6712 91.6159 38.4747C91.8115 39.2832 91.7551 40.1231 91.4466 40.9943C91.0063 42.2365 90.4573 43.4243 89.7988 44.5571C89.1593 45.6806 88.4886 46.7127 87.7857 47.653C87.0878 48.5791 86.1798 49.736 85.0616 51.1239C84.0756 52.3175 83.2392 53.3631 82.5516 54.2607C81.8786 55.1634 81.2307 56.1072 80.6084 57.0921L79.9443 56.8569ZM76.7433 66.9814C75.501 66.5413 74.6632 65.8667 74.2298 64.9578C73.8154 64.0395 73.8387 62.9307 74.2991 61.6313C74.7443 60.3746 75.4142 59.5271 76.3088 59.0886C77.2231 58.6411 78.3012 58.6373 79.5435 59.0774C80.7857 59.5176 81.6141 60.1968 82.0279 61.1148C82.4613 62.0238 82.4553 63.1065 82.0103 64.3632C81.55 65.6627 80.8626 66.5362 79.9488 66.984C79.0541 67.4224 77.9856 67.4215 76.7433 66.9814Z" fill="#FF0066"/>
<path d="M66.2109 28.0506L55.3439 58.7237L47.7613 56.0373L52.3221 43.164L41.9764 39.4987L37.4155 52.372L29.8115 49.678L40.6786 19.0048L48.2826 21.6988L43.2513 35.9001L53.597 39.5655L58.6283 25.3642L66.2109 28.0506ZM72.1148 38.0257C70.8582 37.5805 70.0178 36.9131 69.5937 36.0235C69.1746 35.1196 69.1927 34.0251 69.6481 32.7399C70.0933 31.4833 70.7581 30.65 71.6426 30.2402C72.5465 29.8211 73.6197 29.8316 74.862 30.2718C76.1043 30.7119 76.9376 31.3767 77.3618 32.2664C77.8052 33.1467 77.8044 34.2152 77.3592 35.4719C76.9038 36.7571 76.2288 37.6188 75.3342 38.0573C74.4446 38.4815 73.3715 38.4709 72.1148 38.0257ZM69.2096 38.8769C70.1693 39.5704 71.1989 40.1121 72.2984 40.5016C73.4123 40.8962 74.5461 41.1211 75.6998 41.1762L67.9062 63.1744L61.416 60.875L69.2096 38.8769Z" fill="#33D5AD"/>
<defs>
<filter id="filter0_d_163_1758" x="0.437988" y="1.96094" width="140.79" height="131.543" filterUnits="userSpaceOnUse" color-interpolation-filters="sRGB">
<feFlood flood-opacity="0" result="BackgroundImageFix"/>
<feColorMatrix in="SourceAlpha" type="matrix" values="0 0 0 0 0 0 0 0 0 0 0 0 0 0 0 0 0 0 127 0" result="hardAlpha"/>
<feOffset dx="10" dy="20"/>
<feGaussianBlur stdDeviation="15"/>
<feComposite in2="hardAlpha" operator="out"/>
<feColorMatrix type="matrix" values="0 0 0 0 0.0666667 0 0 0 0 0.117647 0 0 0 0 0.141176 0 0 0 0.3 0"/>
<feBlend mode="normal" in2="BackgroundImageFix" result="effect1_dropShadow_163_1758"/>
<feBlend mode="normal" in="SourceGraphic" in2="effect1_dropShadow_163_1758" result="shape"/>
</filter>
</defs>
</svg>
