<svg width="194" height="189" viewBox="0 0 194 189" fill="none" xmlns="http://www.w3.org/2000/svg">
<g filter="url(#filter0_d_78_104)">
<path fill-rule="evenodd" clip-rule="evenodd" d="M138.831 49.6766C138.275 49.5192 136.174 48.7792 134.162 48.0324C132.15 47.2857 129.022 46.1494 127.211 45.5073C123.142 44.0645 118.489 42.383 114.902 41.0586C113.403 40.5055 111.121 39.6911 109.831 39.2489C103.562 37.1001 101.306 36.2987 99.9565 35.7404C99.1486 35.4063 98.0374 35.0111 97.487 34.8625C96.9365 34.7135 94.8321 33.9788 92.8107 33.2296C90.7889 32.4801 87.7172 31.3593 85.9845 30.7389C84.2519 30.1181 81.3557 29.0795 79.5483 28.4309C77.741 27.7821 74.7833 26.721 72.9757 26.0727C71.1681 25.4243 68.4596 24.4469 66.9568 23.9004C62.1804 22.1636 57.5592 20.7494 56.5646 20.72C56.035 20.7042 55.5082 20.6404 55.3934 20.5779C54.8348 20.2727 50.3055 20.6132 48.2512 21.1147C44.2614 22.0884 41.2415 23.645 38.1487 26.3218C36.8036 27.4857 36.4258 28.028 34.3001 31.8453C32.4208 35.2206 31.7102 36.7749 30.7941 39.5154C30.1619 41.4057 29.2319 44.1901 28.7271 45.7028C28.2222 47.2155 27.5707 49.0543 27.2792 49.7889C26.9876 50.5235 26.3137 52.4232 25.7816 54.0104C24.1535 58.8682 23.249 61.4672 22.5017 63.4363C20.0285 69.954 19.682 74.6723 21.2936 79.8822C22.3451 83.2815 22.677 83.9893 24.3737 86.4497C26.4499 89.4604 28.8547 91.6153 32.2585 93.5161C33.7926 94.3728 35.5506 95.1989 36.1651 95.3523C36.7796 95.5053 39.7324 96.5415 42.7269 97.6546C45.7214 98.7678 49.0482 99.9626 50.12 100.31C51.1918 100.657 52.6708 101.187 53.4066 101.488C54.1426 101.789 55.314 102.208 56.0096 102.419C56.7054 102.63 58.8712 103.387 60.8225 104.102C62.7737 104.817 65.7868 105.911 67.5181 106.534C69.2495 107.157 72.2038 108.224 74.0833 108.906C75.9628 109.587 78.0691 110.318 78.7644 110.53C81.1529 111.259 81.2982 111.422 81.746 113.88C81.9731 115.127 82.2554 116.521 82.3736 116.979C82.4916 117.436 82.9476 119.743 83.387 122.106C83.8263 124.469 84.2525 126.586 84.3334 126.81C84.4143 127.035 84.6373 128.112 84.828 129.205C85.0195 130.297 85.2059 131.281 85.2421 131.391C85.2787 131.501 85.6198 133.124 85.9998 134.998C86.3802 136.872 86.7438 138.391 86.8085 138.372C87.5002 138.177 92.9969 133.99 96.8904 130.691C97.7221 129.987 99.7168 128.307 101.325 126.959C102.932 125.611 104.928 123.932 105.759 123.228C108.319 121.062 108.161 121.108 110.326 121.91C113.942 123.251 116.098 123.766 118.867 123.952C125.979 124.429 133.059 121.508 137.347 116.327C138.55 114.874 142.024 108.18 142.342 106.704C142.542 105.776 143.241 103.764 145.996 96.1906C146.485 94.8482 147.05 93.1686 147.252 92.4587C147.454 91.7489 148.021 90.0834 148.512 88.7575C152.209 78.7729 153.254 75.2426 153.404 72.2342C153.56 69.1302 153.422 67.9206 152.569 64.9218C151.264 60.3356 148.965 56.7675 145.265 53.5869C142.973 51.617 140.608 50.1799 138.831 49.6766Z" fill="white"/>
</g>
<path d="M118.382 94.4547C118.607 92.5479 118.757 90.667 118.831 88.8126C118.906 86.9586 118.943 84.7598 118.943 82.2171C118.957 79.3349 119.002 76.9273 119.078 74.9939C119.162 73.0371 119.366 71.0035 119.69 68.8931C120.046 66.7676 120.586 64.6812 121.312 62.6336C121.779 61.3157 122.533 60.2322 123.576 59.3831C124.65 58.5187 125.9 57.9815 127.325 57.7713C128.774 57.5694 130.299 57.752 131.899 58.319C133.406 58.8526 134.654 59.6261 135.647 60.6401C136.661 61.6615 137.319 62.8351 137.618 64.1592C137.94 65.4918 137.847 66.876 137.339 68.3118C136.613 70.3591 135.708 72.3167 134.623 74.1836C133.569 76.0352 132.463 77.7362 131.305 79.2859C130.155 80.8121 128.658 82.7189 126.815 85.0063C125.191 86.9734 123.812 88.6967 122.679 90.176C121.57 91.6638 120.502 93.2191 119.476 94.8423L118.382 94.4547ZM113.106 111.141C111.059 110.415 109.678 109.304 108.964 107.806C108.281 106.292 108.319 104.465 109.078 102.323C109.812 100.252 110.916 98.8554 112.39 98.1328C113.897 97.3953 115.674 97.389 117.721 98.1143C119.769 98.8398 121.134 99.9591 121.816 101.472C122.53 102.97 122.52 104.755 121.787 106.826C121.028 108.968 119.895 110.407 118.389 111.145C116.915 111.868 115.154 111.866 113.106 111.141Z" fill="#FF0066"/>
<path d="M95.748 46.9803L77.8381 97.5323L65.3413 93.1049L72.858 71.8885L55.8072 65.8477L48.2906 87.064L35.7585 82.6241L53.6684 32.072L66.2005 36.5119L57.9084 59.917L74.9591 65.9578L83.2512 42.5528L95.748 46.9803ZM105.478 63.4201C103.407 62.6863 102.022 61.5865 101.323 60.1203C100.632 58.6306 100.662 56.8267 101.413 54.7086C102.146 52.6376 103.242 51.2643 104.7 50.5889C106.19 49.8982 107.958 49.9155 110.006 50.6409C112.053 51.3663 113.426 52.462 114.126 53.9282C114.856 55.3792 114.855 57.1401 114.121 59.2111C113.371 61.3293 112.258 62.7495 110.784 63.4721C109.318 64.1713 107.549 64.1539 105.478 63.4201ZM100.69 64.8229C102.272 65.966 103.969 66.8586 105.781 67.5006C107.616 68.1509 109.485 68.5216 111.386 68.6125L98.5419 104.867L87.8455 101.078L100.69 64.8229Z" fill="#33D5AD"/>
<defs>
<filter id="filter0_d_78_104" x="0.310242" y="10.4619" width="193.15" height="177.91" filterUnits="userSpaceOnUse" color-interpolation-filters="sRGB">
<feFlood flood-opacity="0" result="BackgroundImageFix"/>
<feColorMatrix in="SourceAlpha" type="matrix" values="0 0 0 0 0 0 0 0 0 0 0 0 0 0 0 0 0 0 127 0" result="hardAlpha"/>
<feOffset dx="10" dy="20"/>
<feGaussianBlur stdDeviation="15"/>
<feComposite in2="hardAlpha" operator="out"/>
<feColorMatrix type="matrix" values="0 0 0 0 0.0666667 0 0 0 0 0.117647 0 0 0 0 0.141176 0 0 0 0.3 0"/>
<feBlend mode="normal" in2="BackgroundImageFix" result="effect1_dropShadow_78_104"/>
<feBlend mode="normal" in="SourceGraphic" in2="effect1_dropShadow_78_104" result="shape"/>
</filter>
</defs>
</svg>
