<svg width="220" height="209" viewBox="0 0 220 209" fill="none" xmlns="http://www.w3.org/2000/svg">
<g clip-path="url(#clip0_68_68)">
<path d="M183.661 86.9984L190.334 100.067L157.207 117.328L151.581 104.149L183.661 86.9984Z" fill="#40C85A"/>
<path d="M77.7515 36.7112L93.7936 38.1994L88.4552 77.958L72.413 76.4696L77.7515 36.7112Z" fill="#FF0066"/>
<path d="M106.981 92.9563L119.603 82.0926L139.233 107.568L125.564 118.542L106.981 92.9563Z" fill="#FFC107"/>
<path d="M52.3008 116.725L62.6067 103.987L90.1745 124.389L80.916 137.017L52.3008 116.725Z" fill="#D1FC55"/>
<path d="M65.3732 150.307C66.8627 154.388 70.3043 162.924 72.1572 164.424L43.1089 180.196L35.1674 165.142L65.3732 150.307Z" fill="#111E24"/>
</g>
<defs>
<clipPath id="clip0_68_68">
<rect width="182" height="166" fill="white" transform="matrix(-0.963473 0.267804 0.267804 0.963473 175.352 0)"/>
</clipPath>
</defs>
</svg>
