<svg width="67" height="66" viewBox="0 0 67 66" fill="none" xmlns="http://www.w3.org/2000/svg">
<rect width="67" height="66" rx="33" fill="white"/>
<path d="M17.4842 32.3387C26.2083 28.4578 32.0258 25.8993 34.9366 24.6632C43.2474 21.1338 44.9744 20.5207 46.0999 20.5002C46.3475 20.496 46.901 20.5586 47.2596 20.8557C47.5624 21.1065 47.6457 21.4453 47.6855 21.6831C47.7254 21.9209 47.775 22.4627 47.7356 22.886C47.2852 27.7175 45.3364 39.4424 44.345 44.8537C43.9255 47.1435 43.0995 47.9112 42.2999 47.9864C40.562 48.1497 39.2423 46.8137 37.5591 45.6872C34.9252 43.9243 33.4372 42.8269 30.8805 41.1067C27.9259 39.1187 29.8413 38.0261 31.5251 36.2404C31.9658 35.7731 39.6229 28.6619 39.7711 28.0168C39.7896 27.9362 39.8069 27.6354 39.6319 27.4766C39.4569 27.3178 39.1986 27.3721 39.0123 27.4153C38.7481 27.4765 34.5404 30.3161 26.3892 35.9341C25.1948 36.7714 24.113 37.1794 23.1438 37.1581C22.0752 37.1345 20.0198 36.5412 18.4918 36.0341C16.6177 35.4121 15.1282 35.0832 15.2579 34.0268C15.3254 33.4766 16.0675 32.9139 17.4842 32.3387Z" fill="#26A5E4"/>
</svg>
