<svg width="67" height="66" viewBox="0 0 67 66" fill="none" xmlns="http://www.w3.org/2000/svg">
<rect x="1.5" y="1.5" width="64" height="63" rx="31.5" fill="#40C85A" stroke="white" stroke-width="3"/>
<path d="M41.0833 48.5837H26.9166C24.5083 48.5837 22.6666 46.742 22.6666 44.3337V21.667C22.6666 19.2587 24.5083 17.417 26.9166 17.417H41.0833C43.4916 17.417 45.3333 19.2587 45.3333 21.667V44.3337C45.3333 46.742 43.4916 48.5837 41.0833 48.5837ZM26.9166 20.2503C26.0666 20.2503 25.5 20.817 25.5 21.667V44.3337C25.5 45.1837 26.0666 45.7503 26.9166 45.7503H41.0833C41.9333 45.7503 42.5 45.1837 42.5 44.3337V21.667C42.5 20.817 41.9333 20.2503 41.0833 20.2503H26.9166Z" fill="white"/>
<path d="M34 42.917C33.8583 42.917 33.575 42.917 33.4333 42.7753C33.2916 42.7753 33.15 42.6337 33.0083 42.492C32.725 42.2087 32.5833 41.9253 32.5833 41.5003C32.5833 41.3587 32.5833 41.0753 32.725 40.9337C32.8666 40.792 32.8666 40.6503 33.0083 40.5087C33.575 39.942 34.425 39.942 34.9916 40.5087C35.275 40.792 35.4166 41.217 35.4166 41.5003C35.4166 41.9253 35.275 42.2087 34.9916 42.492C34.7083 42.7753 34.425 42.917 34 42.917Z" fill="white"/>
</svg>
