<svg width="66" height="66" viewBox="0 0 66 66" fill="none" xmlns="http://www.w3.org/2000/svg">
<rect width="66" height="66" rx="33" fill="white"/>
<path d="M45.5424 20.4131C42.5406 17.323 38.391 15.6455 34.1532 15.6455C25.1478 15.6455 17.9081 22.9734 17.9964 31.8906C17.9964 34.7158 18.791 37.4527 20.1153 39.9248L17.8198 48.3122L26.3838 46.105C28.7676 47.4293 31.4162 48.0473 34.0649 48.0473C42.982 48.0473 50.2216 40.7194 50.2216 31.8023C50.2216 27.4761 48.5442 23.4149 45.5424 20.4131ZM34.1532 45.3104C31.7694 45.3104 29.3856 44.6924 27.355 43.4563L26.8252 43.1915L21.7045 44.5158L23.0288 39.4833L22.6757 38.9536C18.791 32.6851 20.645 24.386 27.0018 20.5014C33.3586 16.6167 41.5694 18.4707 45.4541 24.8275C49.3387 31.1842 47.4847 39.3951 41.1279 43.2797C39.0973 44.6041 36.6252 45.3104 34.1532 45.3104ZM41.9225 35.5104L40.9514 35.0689C40.9514 35.0689 39.5387 34.4509 38.6559 34.0095C38.5676 34.0095 38.4793 33.9212 38.391 33.9212C38.1261 33.9212 37.9496 34.0095 37.773 34.0978C37.773 34.0978 37.6847 34.186 36.4487 35.5987C36.3604 35.7752 36.1838 35.8635 36.0072 35.8635H35.9189C35.8306 35.8635 35.6541 35.7752 35.5658 35.687L35.1243 35.5104C34.1532 35.0689 33.2703 34.5392 32.564 33.8329C32.3874 33.6563 32.1225 33.4797 31.946 33.3032C31.3279 32.6851 30.7099 31.9788 30.2685 31.1842L30.1802 31.0077C30.0919 30.9194 30.0919 30.8311 30.0036 30.6545C30.0036 30.4779 30.0036 30.3014 30.0919 30.2131C30.0919 30.2131 30.4451 29.7716 30.7099 29.5068C30.8865 29.3302 30.9748 29.0653 31.1514 28.8888C31.3279 28.6239 31.4162 28.2707 31.3279 28.0059C31.2396 27.5644 30.1802 25.1806 29.9153 24.6509C29.7387 24.386 29.5622 24.2978 29.2973 24.2095H29.0324C28.8559 24.2095 28.591 24.2095 28.3261 24.2095C28.1496 24.2095 27.973 24.2978 27.7964 24.2978L27.7081 24.386C27.5315 24.4743 27.355 24.6509 27.1784 24.7392C27.0018 24.9158 26.9135 25.0924 26.7369 25.2689C26.1189 26.0635 25.7658 27.0347 25.7658 28.0059C25.7658 28.7122 25.9423 29.4185 26.2072 30.0365L26.2955 30.3014C27.0901 31.9788 28.1496 33.4797 29.5622 34.8041L29.9153 35.1572C30.1802 35.4221 30.4451 35.5987 30.6216 35.8635C32.4757 37.4527 34.5946 38.6005 36.9784 39.2185C37.2433 39.3068 37.5964 39.3068 37.8613 39.3951C38.1261 39.3951 38.4793 39.3951 38.7442 39.3951C39.1856 39.3951 39.7153 39.2185 40.0685 39.0419C40.3333 38.8653 40.5099 38.8653 40.6865 38.6888L40.8631 38.5122C41.0396 38.3356 41.2162 38.2473 41.3928 38.0707C41.5694 37.8942 41.746 37.7176 41.8342 37.541C42.0108 37.1878 42.0991 36.7464 42.1874 36.305C42.1874 36.1284 42.1874 35.8635 42.1874 35.687C42.1874 35.687 42.0991 35.5987 41.9225 35.5104Z" fill="#0DC143"/>
</svg>
