<svg width="752" height="110" viewBox="0 0 752 110" fill="none" xmlns="http://www.w3.org/2000/svg">
<path d="M416.962 93.4535C373.782 93.4535 330.977 96.046 287.799 96.046C243.563 96.046 198.749 96.046 154.536 96.046C128.301 96.046 134.161 96.046 71.8754 89.6268C51.3868 85.9971 35.6863 80.4253 18.7384 71.4179C4.28717 63.7374 -2.85479 47.0042 5.66588 35.1237C11.535 26.9404 26.7478 22.872 38.5423 20.9374C97.6492 11.2416 160.587 10.1175 221.265 6.53497C262.006 4.12845 303.427 2.7177 344.38 2.7177C397.311 2.7177 450.801 1.05527 503.689 2.79028C517.261 3.23553 525.902 2.79028 543.113 2.79028C560.323 2.79028 568.595 4.74068 580.661 5.5985C604.347 7.28391 626.878 8.52407 650.315 11.7918C670.138 14.5556 690.321 15.8024 710.216 18.2729C720.701 19.575 720.644 19.452 735.396 23.6867C744.411 29.7362 748.326 33.9709 749.965 39.4155C749.965 53.4825 751.063 55.0606 740.849 67.8922C736.179 72.3229 729.496 78.0326 722.117 81.1226C717.231 82.3712 713.346 85.2768 708.46 86.3074C701.315 87.8141 694.276 87.959 687.29 89.764C675.87 92.7144 662.808 94.1993 650.902 95.957C631.851 98.7694 613.624 101.586 594.319 103.918C575.211 106.226 554.852 106.223 535.492 106.223C512.034 106.223 488.58 107.519 465.253 107.519C456.993 107.519 448.732 107.519 440.473 107.519C421 107.519 404.551 106.266 387.718 106.111C327.567 105.56 267.49 105 207.24 105" stroke="#FC6B65" stroke-width="3" stroke-linecap="round"/>
</svg>
