<svg width="1165" height="30" viewBox="0 0 1165 30" fill="none" xmlns="http://www.w3.org/2000/svg">
<path d="M1.68994 25.7496C12.8334 21.8802 24.347 18.1479 35.6657 14.3487C41.9922 12.2251 43.8676 12.7082 42.5178 15.6375C40.5989 19.8018 34.2948 23.5944 32.6677 27.8315C32.4897 28.295 81.4277 17.1384 89.056 15.0426C92.8649 13.9962 112.069 7.62224 112.182 9.59002C112.25 10.7695 109.5 20.1536 112.61 20.6935C123.271 22.5443 166.681 1.10096 155.294 13.4564C154.714 14.0868 146.912 20.5165 151.868 21.0901C163.536 22.4406 185.858 16.2055 195.123 14.2991C214.905 10.2286 193.3 24.12 215.537 22.8746C228.596 22.1432 245.582 19.1926 256.936 16.8271C263.724 15.4129 261.219 19.4304 261.219 21.2388C261.219 28.3371 347.705 2.90802 349.583 3.69127C353.62 5.37264 344.612 10.8051 343.587 12.7625C341.643 16.4762 373.129 10.6344 375.709 10.284C408.036 5.89145 374.189 23.137 379.134 22.7755C401.006 21.1766 422.571 11.1698 438.949 6.36802C440.997 5.76752 458.979 -0.95999 455.365 3.54257C453.447 5.93447 435.718 17.9494 441.803 19.8509C451.817 22.9804 483.893 17.4066 493.909 16.1332C515.005 13.4509 494.889 24.8878 524.315 20.3466C528.353 19.7236 540.385 16.1611 541.16 19.256C542.191 23.3693 536.67 26.8486 552.153 26.6419C563.914 26.4848 572.905 24.5861 582.703 22.478C588.722 21.183 602.179 16.8877 610.111 17.0254C618.84 17.177 625.262 17.3051 635.094 15.3896C639.445 14.5418 665.88 6.89202 660.362 12.9607C656.552 17.1496 644.373 22.4929 644.373 26.9888C644.373 28.7226 678.601 21.5564 681.06 20.8918C685.536 19.6836 708.195 13.4238 701.191 19.5039C696.021 23.9897 749.337 11.613 749.012 12.5146C748.64 13.5453 739.252 19.2547 748.726 17.9672C758.607 16.6249 780.172 8.88082 775.993 12.2668C771.532 15.8818 759.382 19.8755 757.72 23.7668C756.842 25.8239 772.371 23.971 773.137 23.866C786.836 21.9894 798.094 18.2439 809.541 15.1418C853.892 3.12219 807.364 20.0298 821.104 21.0901C832.794 21.9921 870.1 9.22652 866.356 15.9845C860.81 26.0018 888.457 18.1704 902.473 15.7366C908.072 14.765 906.73 17.6111 904.901 19.0082C900.423 22.4286 922.656 18.2399 924.173 17.9177C924.853 17.773 942.484 13.7678 938.449 16.1332C936.756 17.1254 932.079 18.7473 932.453 19.9996C932.977 21.7585 965.828 16.2544 968.855 15.687C976.274 14.2958 1019 6.61349 1015.54 9.19347C1011.37 12.2977 1022.41 11.273 1026.96 10.7797C1037.74 9.60941 1014.13 17.2557 1008.68 20.6935C1000.53 25.8408 1035.58 15.8575 1038.23 15.0922C1038.69 14.9619 1059.22 8.14805 1059.22 10.284C1059.22 13.0207 1049.57 17.2169 1052.94 19.8509C1057.39 23.3314 1093.34 14.3322 1093.77 16.8271C1094.76 22.6852 1106.38 16.9263 1115.47 16.9263C1119.83 16.9263 1114.61 21.0695 1114.61 21.6849C1114.61 24.0773 1146.56 17.6323 1148.58 17.2237C1170.9 12.724 1151.28 19.2289 1163.15 21.2884" stroke="#FC6B65" stroke-width="3" stroke-linecap="round"/>
</svg>
