<svg width="1920" height="890" viewBox="0 0 1920 890" fill="none" xmlns="http://www.w3.org/2000/svg">
<path opacity="0.2" d="M3900 0.5H-1980M3900 120.5H-1980M3900 300.5H-1980M3900 480.5H-1980M3900 660.5H-1980M3900 840.5H-1980M3900 180.5H-1980M3900 360.5H-1980M3900 540.5H-1980M3900 720.5H-1980M3900 900.5H-1980M3900 960.5H-1980M3900 60.5H-1980M3900 240.5H-1980M3900 420.5H-1980M3900 600.5H-1980M3900 780.5H-1980M3900 1020.5H-1980M-1979.5 -30L-1979.5 1050M-1919.5 -30V1050M-1679.5 -30V1050M-1439.5 -30V1050M-1199.5 -30V1050M-959.5 -30V1050M-719.5 -30V1050M-479.5 -30V1050M-239.5 -30V1050M-1799.5 -30V1050M-1559.5 -30V1050M-1319.5 -30V1050M-1079.5 -30V1050M-839.5 -30V1050M-599.5 -30V1050M-359.5 -30V1050M-119.5 -30V1050M-1859.5 -30V1050M-1619.5 -30V1050M-1379.5 -30V1050M-1139.5 -30V1050M-899.5 -30V1050M-659.5 -30V1050M-419.5 -30V1050M-179.5 -30V1050M-1739.5 -30V1050M-1499.5 -30V1050M-1259.5 -30V1050M-1019.5 -30V1050M-779.5 -30V1050M-539.5 -30V1050M-299.5 -30V1050M-59.5 -30V1050M0.5 -30V1050M60.5 -30V1050M300.5 -30V1050M540.5 -30V1050M780.5 -30V1050M1020.5 -30V1050M1260.5 -30V1050M1500.5 -30V1050M1740.5 -30V1050M180.5 -30V1050M420.5 -30V1050M660.5 -30V1050M900.5 -30V1050M1140.5 -30V1050M1380.5 -30V1050M1620.5 -30V1050M1860.5 -30V1050M120.5 -30V1050M360.5 -30V1050M600.5 -30V1050M840.5 -30V1050M1080.5 -30V1050M1320.5 -30V1050M1560.5 -30V1050M1800.5 -30V1050M240.5 -30V1050M480.5 -30V1050M720.5 -30V1050M960.5 -30V1050M1200.5 -30V1050M1440.5 -30V1050M1680.5 -30V1050M1920.5 -30V1050M1980.5 -30V1050M2040.5 -30V1050M2280.5 -30V1050M2520.5 -30V1050M2760.5 -30V1050M3000.5 -30V1050M3240.5 -30V1050M3480.5 -30V1050M3720.5 -30V1050M2160.5 -30V1050M2400.5 -30V1050M2640.5 -30V1050M2880.5 -30V1050M3120.5 -30V1050M3360.5 -30V1050M3600.5 -30V1050M3840.5 -30V1050M2100.5 -30V1050M2340.5 -30V1050M2580.5 -30V1050M2820.5 -30V1050M3060.5 -30V1050M3300.5 -30V1050M3540.5 -30V1050M3780.5 -30V1050M2220.5 -30V1050M2460.5 -30V1050M2700.5 -30V1050M2940.5 -30V1050M3180.5 -30V1050M3420.5 -30V1050M3660.5 -30V1050" stroke="white" stroke-width="2"/>
</svg>
