<svg width="1920" height="1080" viewBox="0 0 1920 1080" fill="none" xmlns="http://www.w3.org/2000/svg">
<path d="M3900 30.5H-1980M3900 150.5H-1980M3900 330.5H-1980M3900 510.5H-1980M3900 690.5H-1980M3900 870.5H-1980M3900 210.5H-1980M3900 390.5H-1980M3900 570.5H-1980M3900 750.5H-1980M3900 930.5H-1980M3900 990.5H-1980M3900 90.5H-1980M3900 270.5H-1980M3900 450.5H-1980M3900 630.5H-1980M3900 810.5H-1980M3900 1050.5H-1980M-1979.5 0L-1979.5 1080M-1919.5 0V1080M-1679.5 0V1080M-1439.5 0V1080M-1199.5 0V1080M-959.5 0V1080M-719.5 0V1080M-479.5 0V1080M-239.5 0V1080M-1799.5 0V1080M-1559.5 0V1080M-1319.5 0V1080M-1079.5 0V1080M-839.5 0V1080M-599.5 0V1080M-359.5 0V1080M-119.5 0V1080M-1859.5 0V1080M-1619.5 0V1080M-1379.5 0V1080M-1139.5 0V1080M-899.5 0V1080M-659.5 0V1080M-419.5 0V1080M-179.5 0V1080M-1739.5 0V1080M-1499.5 0V1080M-1259.5 0V1080M-1019.5 0V1080M-779.5 0V1080M-539.5 0V1080M-299.5 0V1080M-59.5 0V1080M0.5 0V1080M60.5 0V1080M300.5 0V1080M540.5 0V1080M780.5 0V1080M1020.5 0V1080M1260.5 0V1080M1500.5 0V1080M1740.5 0V1080M180.5 0V1080M420.5 0V1080M660.5 0V1080M900.5 0V1080M1140.5 0V1080M1380.5 0V1080M1620.5 0V1080M1860.5 0V1080M120.5 0V1080M360.5 0V1080M600.5 0V1080M840.5 0V1080M1080.5 0V1080M1320.5 0V1080M1560.5 0V1080M1800.5 0V1080M240.5 0V1080M480.5 0V1080M720.5 0V1080M960.5 0V1080M1200.5 0V1080M1440.5 0V1080M1680.5 0V1080M1920.5 0V1080M1980.5 0V1080M2040.5 0V1080M2280.5 0V1080M2520.5 0V1080M2760.5 0V1080M3000.5 0V1080M3240.5 0V1080M3480.5 0V1080M3720.5 0V1080M2160.5 0V1080M2400.5 0V1080M2640.5 0V1080M2880.5 0V1080M3120.5 0V1080M3360.5 0V1080M3600.5 0V1080M3840.5 0V1080M2100.5 0V1080M2340.5 0V1080M2580.5 0V1080M2820.5 0V1080M3060.5 0V1080M3300.5 0V1080M3540.5 0V1080M3780.5 0V1080M2220.5 0V1080M2460.5 0V1080M2700.5 0V1080M2940.5 0V1080M3180.5 0V1080M3420.5 0V1080M3660.5 0V1080" stroke="white" stroke-width="2"/>
</svg>
