<svg width="295" height="295" viewBox="0 0 295 295" fill="none" xmlns="http://www.w3.org/2000/svg">
<path d="M240.56 91.5965C240.525 91.5058 240.479 91.4197 240.423 91.3402C239.093 89.0577 237.648 86.844 236.095 84.7074C235.913 84.3657 235.73 84.0239 235.399 83.7618C235.067 83.4998 234.715 82.8377 234.378 82.3592C225.843 71.0102 215.16 61.4499 202.938 54.2224C201.619 53.4445 200.311 52.688 198.993 51.9642C192.556 48.4775 185.78 45.6562 178.77 43.5441C175.323 42.4637 171.816 41.5855 168.266 40.9139C166.057 40.4729 163.819 40.1302 161.581 39.8415L161.244 39.7744L160.962 39.76L159.811 39.6057C158.356 39.4484 156.89 39.2697 155.166 39.1735L155.038 39.2417C154.247 39.1972 153.423 39.1427 152.567 39.1323L151.329 38.9694L150.485 38.9804L149.705 38.9572C144.778 38.89 139.852 39.151 134.959 39.7384C133.685 39.8687 132.715 40.002 132.154 40.0815L131.27 40.2234L130.428 40.3425L130.322 40.3994L130.151 40.4904L128.771 40.7317L128.601 40.8227L128.43 40.9138L127.344 40.7794L126.084 41.0393L125.018 41.2508L124.407 41.4939L124.258 41.5736L124.065 41.676L123.788 41.8239L122.593 42.1037L121.625 42.3452L120.679 42.5753L120.098 42.7202L118.969 43.02L118.048 42.9897L116.973 43.2881L116.802 43.3791L116.041 43.6477L115.614 43.8753L114.977 43.9675L114.784 44.0158L114.485 44.1751L113.528 44.4379L113.016 44.711L112.093 45.0379L111.232 45.2225L110.783 45.4615L110.149 45.6077L109.508 45.9491L108.372 46.3898L107.169 46.7564L106.849 46.9271L105.952 47.4049L104.396 47.9323L103.389 48.3588L102.364 48.9049L101.185 49.3684L100.523 49.721L99.9253 50.0396L99.0498 50.5061C97.1278 51.53 95.2058 52.554 93.2837 53.5779L92.0665 54.2264L90.7638 54.9204L90.0163 55.3186L88.238 56.4579L87.5974 56.7992L85.2737 58.613L84.1787 59.3882L83.9438 59.5134L82.2651 60.7367L81.0235 61.6998C80.0681 62.4282 79.3363 63.01 78.8493 63.434C76.3575 65.4469 73.9881 67.5867 71.697 69.8218C70.3243 71.1563 69.1324 72.3671 67.7012 73.9522C61.6413 80.54 56.4203 87.8527 52.1573 95.7237L50.9308 98.1045L50.7655 98.4119C50.0547 99.8052 49.4947 101.173 48.7426 102.643L48.5787 103.004L48.4293 103.084L47.9192 104.288L46.9304 106.652L46.4018 107.976L45.4513 110.566L45.2603 111.134C43.7383 115.482 42.9927 118.456 42.9328 118.653C42.5379 120.124 42.1772 121.66 41.8378 123.185C41.4984 124.709 41.3543 125.416 41.1361 126.602C41.1002 126.681 41.0803 126.766 41.0776 126.853L41.0391 127.038C40.6026 129.409 40.173 132.051 39.8743 135.144C39.7271 136.566 39.5813 138.042 39.5706 139.72L39.3484 143.677L39.1867 149.138L39.2619 153.293C39.3832 156.272 39.6661 159.243 40.1094 162.192C40.5296 165.039 41.0607 167.991 41.6645 170.823C42.3361 174.066 43.2071 177.265 44.2725 180.401C45.9924 186.098 48.2225 191.627 50.9357 196.923C53.5295 202.063 56.5575 206.972 59.9868 211.596C66.7385 220.79 74.897 228.862 84.1619 235.515C86.0778 236.979 88.0679 238.345 90.1242 239.604C92.5434 241.058 95.2031 242.602 97.9113 243.929L98.8562 244.467C101.883 246.078 105.023 247.466 108.252 248.62C110.415 249.387 113.268 250.472 115.44 251.152C117.612 251.832 120.513 252.645 122.756 253.15C125.228 253.725 126.285 254.011 128.502 254.311C131.243 254.825 133.97 255.209 136.65 255.454L139.265 255.679L142.117 255.887L144.002 255.925L144.338 255.938C145.118 255.961 146.027 255.97 147.076 255.932L147.737 255.937C150.692 255.925 154.358 255.809 158.288 255.415L161.688 255.003L162.854 254.875L164.881 254.563L166.26 254.322L166.767 254.244L167.488 254.106L168.76 253.868L169.965 253.609C174.441 252.677 178.846 251.438 183.152 249.902L183.515 249.708L184.662 249.289L184.769 249.232L185.756 248.871L188.016 247.968C188.977 247.456 190.254 247.023 191.346 246.551C192.438 246.079 193.358 245.644 194.384 245.152L195.858 244.367C197.182 243.661 198.933 242.728 200.257 242.023C201.581 241.318 203.317 240.201 204.649 239.409C207.375 237.628 210.97 235.164 213.581 233.17C215.853 231.469 218.029 229.642 220.097 227.697L221.543 226.296L226.191 222.257L227.579 220.694C228.706 219.464 229.8 218.223 230.882 216.961L231.429 216.34C232.7 214.868 234.133 212.925 235.429 211.138L236.973 208.89C238.553 206.728 240.009 204.479 241.334 202.152L241.437 201.933C242.535 200.031 243.566 198.056 244.566 196.125L245.216 194.874L246.218 192.586L247.025 190.757L248.514 187.222C249.599 184.641 250.525 181.996 251.286 179.301L251.367 179.094L251.476 178.679C252.091 176.542 252.773 174.012 253.484 170.974L253.544 170.777C254.707 165.805 255.46 160.745 255.794 155.65L255.725 155.521C255.814 153.939 255.912 152.269 255.847 150.603C255.872 149.877 255.873 149.109 255.875 148.34C255.877 147.571 255.907 146.239 255.862 145.331C255.737 145.096 255.835 144.714 255.838 144.411C255.775 142.8 255.7 141.167 255.558 139.46C255.401 137.158 255.179 134.836 254.804 132.898C254.338 129.554 253.718 126.073 252.857 122.501C252.378 120.316 251.802 118.154 251.167 116.19C250.531 114.225 249.789 111.906 248.975 109.707C248.724 109.238 248.613 108.721 248.417 108.25C247.27 105.324 245.97 102.369 244.485 99.3764L244.212 98.8638C243.258 96.301 241.952 93.953 240.56 91.5965Z" fill="url(#paint0_radial_18_2722)"/>
<path d="M156.168 175.629C144.181 178.862 143.679 195.416 152.925 200.883C162.17 206.35 173.75 197.466 171.163 186.176C170.525 182.814 168.602 179.832 165.803 177.863C163.003 175.894 159.547 175.093 156.168 175.629Z" fill="#5C3232"/>
<path d="M225.838 139.253C218.937 147.81 224.626 166.003 232.017 165.519C240.426 164.988 242.023 146.013 234.257 139.155C233.724 138.564 233.07 138.093 232.34 137.774C231.611 137.455 230.822 137.294 230.025 137.304C229.229 137.313 228.444 137.492 227.722 137.828C227 138.164 226.358 138.65 225.838 139.253Z" fill="#5C3232"/>
<path d="M206.103 196.901C186.816 207.889 181.106 230.262 193.236 233.424C208.146 237.326 231.775 211.33 224.854 198.647C221.975 193.244 214.38 192.574 206.103 196.901Z" fill="#5C3232"/>
<path d="M150.562 138.501C148.325 139.184 146.249 140.315 144.461 141.823C142.673 143.332 141.209 145.188 140.159 147.278C137.795 151.28 138.067 154.261 140.793 155.879C141.198 156.135 141.653 156.3 142.127 156.365C142.601 156.429 143.084 156.391 143.542 156.252C144.055 156.104 144.528 155.843 144.927 155.488C145.327 155.133 145.641 154.693 145.848 154.201C147.165 151.525 149.334 147.929 153.184 147.386C155.899 147.281 158.574 148.059 160.809 149.603C161.294 149.92 161.85 150.112 162.427 150.163C163.004 150.214 163.585 150.123 164.118 149.897C165.027 149.417 165.737 148.631 166.122 147.678C166.508 146.725 166.544 145.666 166.224 144.689C165.04 140.357 155.977 137.343 150.519 138.523" fill="#5C3232"/>
<path d="M203.699 110.768C199.743 115.179 200.323 122.958 200.315 123.045C200.352 124.337 200.851 125.573 201.722 126.528C202.593 127.483 203.778 128.094 205.061 128.249C205.575 128.21 206.062 128.008 206.453 127.672C206.798 127.357 207.069 126.971 207.246 126.539C207.424 126.108 207.505 125.643 207.482 125.177C207.506 122.751 207.763 119.324 209.634 117.587C211.178 116.161 213.512 116.014 216.703 117.166C217.116 117.349 217.579 117.388 218.017 117.279C218.455 117.17 218.844 116.917 219.123 116.562C219.535 115.456 219.576 114.246 219.24 113.114C218.904 111.983 218.21 110.991 217.261 110.288C215.355 108.562 207.465 106.568 203.591 110.771" fill="#5C3232"/>
<defs>
<radialGradient id="paint0_radial_18_2722" cx="0" cy="0" r="1" gradientUnits="userSpaceOnUse" gradientTransform="translate(149.48 135.183) rotate(-28.0463) scale(116.969 116.982)">
<stop stop-color="#FDEE57"/>
<stop offset="0.18" stop-color="#FBE851"/>
<stop offset="0.42" stop-color="#F6D641"/>
<stop offset="0.71" stop-color="#EDB826"/>
<stop offset="0.8" stop-color="#EAAE1D"/>
<stop offset="0.83" stop-color="#EBB223"/>
<stop offset="0.87" stop-color="#EEBC34"/>
<stop offset="0.92" stop-color="#F3CC4F"/>
<stop offset="0.97" stop-color="#FAE376"/>
<stop offset="1" stop-color="#FFF594"/>
</radialGradient>
</defs>
</svg>
