<svg width="218" height="218" viewBox="0 0 218 218" fill="none" xmlns="http://www.w3.org/2000/svg">
<path d="M39.0204 146.385C38.9766 146.329 38.9398 146.268 38.911 146.203C37.9797 144.506 37.1346 142.764 36.379 140.982C36.2331 140.739 36.0872 140.496 36.0476 140.189C36.0079 139.882 35.7253 139.411 35.552 139.019C31.6442 129.379 29.6668 119.068 29.7323 108.671C29.7407 107.55 29.7582 106.444 29.8001 105.344C30.0352 99.9894 30.8152 94.6736 32.128 89.4792C32.7474 86.9089 33.5162 84.3774 34.4306 81.8974C34.9852 80.3453 35.6127 78.8115 36.2736 77.299L36.3584 77.0621L36.4555 76.8799L36.792 76.0994C37.2407 75.1275 37.6803 74.1405 38.2685 73.0229L38.3596 72.9683C38.6294 72.4551 38.9054 71.9176 39.2208 71.3771L39.5845 70.5388L39.9091 70.0135L40.188 69.5155C42 66.3996 44.0174 63.4083 46.2269 60.5615C46.788 59.8116 47.237 59.253 47.4979 58.9312L47.9196 58.4303L48.3109 57.9476L48.3867 57.9021L48.5081 57.8293L49.1786 57.0552L49.3 56.9825L49.4213 56.9097L49.7457 56.1777L50.3828 55.4856L50.9168 54.8968L51.2991 54.6055L51.4053 54.5418L51.5419 54.4599L51.7391 54.3416L52.3641 53.6982L52.8799 53.1822L53.3805 52.6753L53.69 52.3657L54.3028 51.7708L54.6303 51.1817L55.222 50.6202L55.3434 50.5475L55.7985 50.1712L56.102 49.9892L56.3992 49.6249L56.5024 49.5217L56.7148 49.3943L57.2397 48.8936L57.6039 48.6752L58.1561 48.22L58.596 47.7495L58.9147 47.5585L59.2454 47.2155L59.7006 46.9425L60.4045 46.3964L61.0872 45.7803L61.3148 45.6438L61.9521 45.2617L62.8684 44.4849L63.5148 44.0146L64.2431 43.5779L64.9774 43.0135L65.4478 42.7315L65.8726 42.4767L66.4948 42.1037C67.8604 41.2848 69.226 40.4659 70.5916 39.647L71.4565 39.1284L72.382 38.5734L72.9131 38.2549L74.297 37.5698L74.7522 37.2968L76.7645 36.5243L77.6628 36.1303L77.8297 36.0302L79.2289 35.4392L80.3003 35.0242C81.1167 34.7 81.7571 34.4606 82.2063 34.3153C84.4068 33.5126 86.6407 32.8345 88.905 32.2415C90.2588 31.8844 91.4669 31.5941 92.9998 31.295C99.4128 29.9819 105.965 29.4689 112.507 29.7675L114.462 29.8973L114.717 29.9098C115.858 29.9901 116.927 30.1554 118.132 30.2388L118.421 30.2725L118.527 30.2088L119.474 30.3436L121.329 30.6162L122.359 30.7844L124.341 31.1665L124.769 31.2612C128.07 31.9486 130.216 32.6044 130.362 32.641C131.434 32.9491 132.533 33.3029 133.617 33.6657C134.701 34.0285 135.199 34.2053 136.025 34.5162C136.088 34.5234 136.149 34.5431 136.204 34.5741L136.335 34.6199C137.986 35.2416 139.805 35.9699 141.858 36.9507C142.806 37.3954 143.786 37.8614 144.843 38.4886L147.409 39.8437L150.896 41.8045L153.474 43.4209C155.297 44.6222 157.054 45.9216 158.737 47.3133C160.365 48.6521 162.018 50.1004 163.567 51.5485C165.349 53.1947 167.028 54.9492 168.594 56.8019C171.52 60.032 174.15 63.5192 176.451 67.2211C178.699 70.7893 180.64 74.5426 182.25 78.4402C185.477 86.1473 187.47 94.3132 188.157 102.637C188.355 104.392 188.463 106.156 188.479 107.922C188.481 109.988 188.449 112.24 188.262 114.439L188.244 115.235C188.115 117.742 187.804 120.236 187.313 122.697C186.981 124.344 186.587 126.543 186.197 128.162C185.806 129.782 185.224 131.908 184.697 133.506C184.127 135.274 183.909 136.045 183.264 137.548C182.554 139.462 181.769 141.318 180.914 143.091L180.071 144.816L179.128 146.684L178.443 147.88L178.325 148.096C178.046 148.594 177.709 149.168 177.291 149.812L177.045 150.228C175.926 152.077 174.473 154.333 172.747 156.649L171.209 158.626L170.69 159.309L169.732 160.462L169.061 161.237L168.822 161.525L168.464 161.926L167.836 162.633L167.22 163.292C164.951 165.746 162.516 168.042 159.932 170.163L159.674 170.317L158.979 170.879L158.903 170.924L158.306 171.407L156.889 172.484C156.206 172.893 155.453 173.531 154.746 174.037C154.039 174.544 153.42 174.956 152.725 175.414L151.678 176.042C150.738 176.606 149.493 177.352 148.553 177.917C147.612 178.481 146.258 179.148 145.26 179.684C143.117 180.721 140.219 182.046 137.985 182.93C136.063 183.713 134.098 184.388 132.1 184.95L130.676 185.329L126.394 186.719L124.891 186.999C123.695 187.241 122.505 187.459 121.306 187.661L120.711 187.77C119.309 188.011 117.551 188.176 115.942 188.314L113.951 188.433C112 188.608 110.041 188.672 108.083 188.624L107.907 188.606C106.301 188.577 104.674 188.478 103.086 188.375L102.057 188.31L100.244 188.074L98.7929 187.89L96.0149 187.489C93.9876 187.195 91.9799 186.777 90.0033 186.237L89.8424 186.209L89.5418 186.121C87.969 185.7 86.1259 185.172 83.9519 184.47L83.8061 184.434C80.2492 183.285 76.7921 181.846 73.4697 180.131L73.415 180.04C72.3886 179.498 71.3045 178.929 70.284 178.259C69.8194 178 69.3365 177.711 68.8537 177.422C68.3708 177.133 67.5235 176.649 66.9708 176.277C66.8705 176.11 66.5942 176.028 66.4029 175.915C65.4158 175.267 64.4197 174.603 63.4023 173.87C62.0174 172.902 60.6446 171.885 59.5693 170.918C57.6467 169.363 55.6967 167.659 53.78 165.77C52.5893 164.644 51.4501 163.467 50.4567 162.326C49.4633 161.186 48.2877 159.844 47.2152 158.503C47.0147 158.169 46.7322 157.904 46.5104 157.603C45.1067 155.778 43.7425 153.847 42.4237 151.785L42.2049 151.421C40.9563 149.854 39.9747 148.148 39.0204 146.385Z" fill="url(#paint0_radial_11_20)"/>
<path d="M97.1477 77.9819C105.042 79.656 105.027 90.7439 98.8398 95.0122C92.9104 99.1258 85.9615 94.1771 86.9527 86.679C87.6962 81.3136 92.4265 77.1956 97.1477 77.9819Z" fill="#5C3232"/>
<path d="M52.0322 72.2726C57.2392 73.2843 53.0822 86.6495 48.0022 89.8403C44.6034 91.8784 42.549 88.3148 43.8783 82.619C45.2075 76.9231 49.1875 72.0354 52.0929 72.2362" fill="#5C3232"/>
<path d="M64.8209 100.343C78.8571 103.109 79.9827 127.072 69.5374 133.46C60.3423 138.974 49.6388 125.115 52.6269 111.52C54.2163 104.366 59.3379 99.662 64.8209 100.343Z" fill="#5C3232"/>
<path d="M101.631 57.2485C106.452 57.9954 111.653 63.641 108.625 66.0563C108.303 66.3037 107.934 66.4833 107.541 66.5841C107.147 66.685 106.738 66.7051 106.336 66.6432C105.961 66.5909 105.604 66.4517 105.292 66.2366C104.981 66.0215 104.723 65.7365 104.541 65.4044C104.121 64.5144 103.503 63.7323 102.734 63.1182C101.966 62.5042 101.067 62.0746 100.107 61.8624C98.1029 61.7058 96.1015 62.1828 94.3851 63.2263C93.7373 63.6023 92.9769 63.736 92.2391 63.6037C91.9824 63.5836 91.7324 63.5118 91.504 63.3927C91.2756 63.2736 91.0735 63.1095 90.9098 62.9104C90.7461 62.7113 90.6242 62.4813 90.5514 62.2341C90.4786 61.9868 90.4564 61.7275 90.4861 61.4717C90.8457 58.631 97.7813 56.7458 101.57 57.2849" fill="#5C3232"/>
<path d="M65.3597 52.6645C68.2591 52.993 69.3058 56.9747 66.3078 59.2685C65.7961 59.7076 65.1656 59.9849 64.4959 60.0656C64.3835 60.0843 64.2682 60.0792 64.1578 60.0505C64.0473 60.0218 63.9441 59.9702 63.8547 59.8991C63.7654 59.8279 63.6919 59.7388 63.6392 59.6375C63.5864 59.5362 63.5554 59.4249 63.5483 59.311C63.4415 58.3415 63.1523 57.068 61.8621 57.0149C60.0601 57.28 58.3948 58.1262 57.1186 59.4252C56.6921 59.8617 56.1263 60.1351 55.5192 60.1982C55.1761 60.1766 55.012 59.9029 55.0725 59.4533C55.5505 56.8102 62.3176 52.339 65.4204 52.6281" fill="#5C3232"/>
<defs>
<radialGradient id="paint0_radial_11_20" cx="0" cy="0" r="1" gradientUnits="userSpaceOnUse" gradientTransform="translate(100.637 105.716) rotate(149.051) scale(85.5246 85.6936)">
<stop stop-color="#FDEE57"/>
<stop offset="0.18" stop-color="#FBE851"/>
<stop offset="0.42" stop-color="#F6D641"/>
<stop offset="0.71" stop-color="#EDB826"/>
<stop offset="0.8" stop-color="#EAAE1D"/>
<stop offset="0.83" stop-color="#EBB223"/>
<stop offset="0.87" stop-color="#EEBC34"/>
<stop offset="0.92" stop-color="#F3CC4F"/>
<stop offset="0.97" stop-color="#FAE376"/>
<stop offset="1" stop-color="#FFF594"/>
</radialGradient>
</defs>
</svg>
