<svg width="20" height="20" viewBox="0 0 20 20" fill="none" xmlns="http://www.w3.org/2000/svg">
<path d="M1.10551 10.3337L4.07217 12.5004L2.94551 15.9895C2.76343 16.5307 2.76113 17.1162 2.93893 17.6588C3.11673 18.2014 3.46513 18.6719 3.93217 19.0004C4.39122 19.3394 4.9475 19.521 5.51813 19.5181C6.08877 19.5152 6.64321 19.3281 7.09884 18.9845L9.99967 16.8495L12.9013 18.982C13.3596 19.3191 13.9128 19.5021 14.4816 19.5049C15.0505 19.5077 15.6055 19.33 16.067 18.9975C16.5285 18.6649 16.8726 18.1946 17.0499 17.6541C17.2272 17.1136 17.2286 16.5308 17.0538 15.9895L15.9272 12.5004L18.8938 10.3337C19.3515 9.99913 19.6916 9.52849 19.8658 8.98903C20.04 8.44956 20.0392 7.86886 19.8636 7.32986C19.688 6.79086 19.3465 6.32114 18.888 5.98779C18.4295 5.65444 17.8774 5.47451 17.3105 5.4737H13.6663L12.5605 2.02704C12.3866 1.4845 12.0449 1.01121 11.5846 0.675423C11.1244 0.339633 10.5694 0.158691 9.99967 0.158691C9.42995 0.158691 8.87495 0.339633 8.4147 0.675423C7.95445 1.01121 7.61274 1.4845 7.43884 2.02704L6.33301 5.4737H2.69217C2.12529 5.47451 1.57317 5.65444 1.11466 5.98779C0.656146 6.32114 0.314706 6.79086 0.139107 7.32986C-0.0364925 7.86886 -0.0372697 8.44956 0.136886 8.98903C0.311042 9.52849 0.651223 9.99913 1.10884 10.3337H1.10551Z" fill="#FFC107"/>
</svg>
