<svg width="311" height="13" viewBox="0 0 311 13" fill="none" xmlns="http://www.w3.org/2000/svg">
<path d="M3.31337 7.09271C6.17274 7.18796 29.345 7.96416 33.8 8.09813C38.3943 8.2363 43.2513 8.57039 47.8612 8.14015C51.8601 7.76692 55.832 7.41193 59.842 7.09046C65.9364 6.60189 71.9184 6.19962 78.0075 5.73501C90.7229 4.76482 103.049 2.65838 115.796 3.28895C120.39 3.51625 124.998 3.2346 129.602 3.38539C135.542 3.57991 141.882 4.02813 147.786 3.89111C158.651 3.63892 169.419 4.91921 180.306 4.8463C189.608 4.784 198.488 4.12802 207.638 5.92191C216.914 7.74059 227.617 7.92992 237.099 7.53022C242.925 7.28462 249.01 8.16961 254.857 8.2914C265.383 8.51067 275.922 8.63509 286.45 8.73147C293.462 8.79567 300.703 8.64838 307.516 9.77363" stroke="#FF0066" stroke-width="5" stroke-linecap="round"/>
</svg>
