<svg width="234" height="11" viewBox="0 0 234 11" fill="none" xmlns="http://www.w3.org/2000/svg">
<path d="M3.23514 6.06904C5.37967 6.14048 22.7589 6.72263 26.1001 6.82311C29.5458 6.92673 33.1886 7.17731 36.646 6.85462C39.6452 6.5747 42.6241 6.30846 45.6316 6.06735C50.2024 5.70093 54.6889 5.39923 59.2557 5.05077C68.7922 4.32312 78.0372 2.7433 87.5968 3.21622C91.0428 3.3867 94.4985 3.17546 97.9516 3.28855C102.406 3.43445 107.161 3.77061 111.589 3.66784C119.738 3.4787 127.815 4.43892 135.979 4.38423C142.956 4.33751 149.616 3.84552 156.478 5.19094C163.435 6.55495 171.463 6.69695 178.574 6.39717C182.944 6.21297 187.508 6.87672 191.893 6.96806C199.787 7.13251 207.692 7.22583 215.587 7.29811C220.847 7.34626 226.278 7.2358 231.387 8.07973" stroke="#FF0066" stroke-width="5" stroke-linecap="round"/>
</svg>
