<svg width="226" height="24" viewBox="0 0 226 24" fill="none" xmlns="http://www.w3.org/2000/svg">
<path d="M224.048 1.87572C221.816 2.29906 219.562 3.53865 217.345 3.74653C216.787 3.79895 215.938 3.60497 215.499 4.05452C213.518 6.08566 211.34 7.90925 208.67 9.06772C207.582 9.5398 211.003 3.10467 210.793 3.13797C206.288 3.85336 201.056 9.96024 197.777 12.7189C194.023 15.8782 190.064 18.6278 186.174 21.5852C182.91 24.0671 187.25 14.3027 187.796 13.3804C190.178 9.35669 191.653 6.8211 185.725 9.11032L185.676 9.1291C183.071 10.1351 182.442 10.3781 182.2 7.72881C182.011 5.65823 174.173 8.99141 173.182 9.38139C170.587 10.4029 172.928 5.33527 171.397 5.55363C166.289 6.28204 161.204 11.6566 156.883 14.2835C156.366 14.5976 156.578 13.5809 156.488 13.302C156.233 12.5138 152.562 14.8829 152.237 15.0543C149.594 16.4496 144.482 20.1286 146.891 14.6738C147.396 13.5322 147.891 12.3997 148.355 11.2417C148.514 10.8454 149.305 10.3286 148.943 10.1043C147.605 9.27394 142.492 13.5348 141.66 14.1382C138.82 16.1973 136.149 18.7306 133.143 20.5399C130.732 21.9914 134.377 16.143 134.392 16.12C136.759 12.492 139.407 9.04734 141.549 5.27174C143.457 1.91213 137.869 7.18815 137.757 7.27907C133.52 10.7545 129.06 14.1645 124.516 17.2302C120.419 19.9938 125.586 11.8512 126.223 10.8465L126.232 10.8323C127.447 8.91798 129.611 6.44098 130.187 4.17274C130.347 3.53791 128.932 4.57457 128.386 4.93155C125.016 7.13802 121.749 9.51127 118.417 11.7777C114.396 14.5144 110.48 17.4152 106.436 20.1146C105.747 20.5748 104.678 21.2694 105.346 19.7918C105.479 19.4974 107.139 17.1778 106.806 17.0841C104.567 16.4545 101.148 18.2225 99.0814 18.8711C98.4603 19.0662 93.9082 20.9036 93.2523 20.0467C92.3585 18.8774 93.1914 15.1777 93.4501 13.8846C93.685 12.7099 94.8918 11.2263 93.0083 11.6075C90.0962 12.1967 87.6653 13.9106 85.1142 15.3315C84.6256 15.6037 82.4652 17.3293 82.4432 16.0313C82.4052 13.775 83.3157 11.4062 84.1191 9.33308C84.608 8.06941 75.2408 13.6483 74.1736 14.338C72.303 15.5475 69.9412 18.0425 67.7441 18.7938C66.4373 19.2407 69.8212 10.1357 69.0555 10.2985C65.2015 11.1176 61.8673 13.9126 58.5625 15.8964C58.1766 16.1279 53.6811 18.9795 53.82 18.119C54.338 14.907 56.937 11.945 58.6554 9.31562C60.7663 6.08442 58.1766 6.23531 55.6847 7.52187C54.1799 8.29852 46.0616 15.3164 48.5512 9.07637C48.7275 8.63263 50.3184 6.10966 48.649 6.81C44.045 8.74105 40.0776 12.5932 35.9247 15.3244C34.9706 15.952 29.9941 20.0189 31.1445 16.5226C32.0587 13.7457 33.8634 11.3549 35.2401 8.80188C36.3163 6.80666 34.6053 7.95049 33.168 8.66538C28.6145 10.9303 24.5015 14.1895 20.4458 17.2401C20.1767 17.4428 16.6454 20.903 17.2581 18.5619C18.259 14.7425 21.1836 11.4103 22.9873 7.94616C23.7171 6.54315 23.8197 5.83432 22.1641 5.89399C15.5121 6.13376 8.47958 9.86466 2.25479 12.0425" stroke="#FC6B65" stroke-width="3" stroke-linecap="round"/>
</svg>
