<svg width="164" height="12" viewBox="0 0 164 12" fill="none" xmlns="http://www.w3.org/2000/svg">
<path d="M162.289 1.8102C160.671 1.95381 159.023 2.30136 157.42 2.39098C157.015 2.41358 156.406 2.37968 156.082 2.49926C154.618 3.03953 153.015 3.53141 151.068 3.86582C150.275 4.00209 152.853 2.33904 152.701 2.35092C149.438 2.60611 145.558 4.21818 143.145 4.962C140.381 5.81382 137.477 6.567 134.62 7.37078C132.222 8.04534 135.52 5.53642 135.93 5.29712C137.717 4.25311 138.825 3.59567 134.508 4.26759L134.472 4.2731C132.575 4.56837 132.117 4.63969 131.987 3.98317C131.886 3.47005 126.173 4.43485 125.451 4.54899C123.561 4.84796 125.337 3.54435 124.228 3.6249C120.529 3.89361 116.768 5.32054 113.605 6.04928C113.226 6.13643 113.397 5.87928 113.336 5.81125C113.166 5.61904 110.476 6.27241 110.239 6.32069C108.307 6.7137 104.555 7.71827 106.387 6.31694C106.77 6.02365 107.147 5.73281 107.502 5.43613C107.624 5.33457 108.203 5.19222 107.946 5.14245C106.994 4.95821 103.232 6.10789 102.621 6.27256C100.536 6.83445 98.565 7.51171 96.3648 8.01414C94.6003 8.4172 97.3303 6.89666 97.3417 6.89065C99.1116 5.94559 101.081 5.04146 102.692 4.06341C104.126 3.1931 100.003 4.60405 99.9212 4.62862C96.8038 5.56753 93.5268 6.49391 90.1953 7.33587C87.1918 8.09486 91.0596 5.97624 91.5363 5.71484L91.5431 5.71116C92.4523 5.21308 94.0567 4.55849 94.5105 3.98305C94.6372 3.822 93.5981 4.10464 93.1983 4.20296C90.7282 4.81065 88.3301 5.45815 85.8871 6.08014C82.9383 6.83112 80.0627 7.62126 77.0979 8.36335C76.5926 8.48985 75.8096 8.68128 76.3167 8.30145C76.4182 8.22574 77.6557 7.61902 77.4166 7.60134C75.8115 7.48248 73.3143 7.98166 71.8115 8.17863C71.3599 8.23788 68.0434 8.77366 67.5847 8.57116C66.9595 8.2948 67.6237 7.358 67.8324 7.03114C68.0219 6.7342 68.9182 6.34365 67.5524 6.47083C65.4407 6.66741 63.6572 7.13623 61.7918 7.53406C61.4345 7.61027 59.8459 8.0774 59.8522 7.75409C59.8632 7.1921 60.5607 6.58586 61.1759 6.05519C61.5503 5.73173 54.6949 7.28262 53.913 7.47282C52.5424 7.80631 50.7953 8.46875 49.1968 8.69356C48.2462 8.82727 50.8435 6.49908 50.2881 6.55272C47.4927 6.82268 45.0389 7.5765 42.6199 8.12754C42.3375 8.19186 39.0446 8.9796 39.1594 8.76264C39.588 7.95284 41.5142 7.1699 42.7992 6.48491C44.3777 5.64316 42.5062 5.72493 40.6858 6.08825C39.5866 6.30757 33.608 8.19601 35.5112 6.59749C35.646 6.48383 36.8371 5.82756 35.6204 6.03066C32.2648 6.59069 29.3358 7.61894 26.2922 8.37082C25.5929 8.54357 21.9321 9.64258 22.8219 8.75108C23.529 8.04304 24.8723 7.41607 25.9093 6.75596C26.72 6.24006 25.4657 6.55447 24.4162 6.75724C21.0914 7.39967 18.0675 8.28252 15.0885 9.11239C14.8908 9.16752 12.2833 10.0906 12.7654 9.49636C13.5529 8.52684 15.7203 7.64604 17.0811 6.75144C17.6317 6.38913 17.7179 6.21062 16.522 6.25372C11.7172 6.42691 6.57829 7.47717 2.04878 8.12636" stroke="#FC6B65" stroke-width="3" stroke-linecap="round"/>
</svg>
