<svg width="54" height="54" viewBox="0 0 54 54" fill="none" xmlns="http://www.w3.org/2000/svg">
<rect x="2.5" y="2.5" width="49" height="49" rx="24.5" fill="#419FD9"/>
<rect x="2.5" y="2.5" width="49" height="49" rx="24.5" fill="url(#paint0_linear_143_111)"/>
<rect x="2.5" y="2.5" width="49" height="49" rx="24.5" stroke="white" stroke-width="5"/>
<path d="M14.8884 26.515C21.2861 23.6691 25.5523 21.7928 27.6868 20.8863C33.7815 18.2981 35.0479 17.8485 35.8733 17.8335C36.0548 17.8304 36.4608 17.8763 36.7237 18.0941C36.9457 18.2781 37.0068 18.5266 37.036 18.701C37.0653 18.8754 37.1017 19.2726 37.0727 19.5831C36.7425 23.1262 35.3134 31.7244 34.5864 35.6927C34.2787 37.3719 33.673 37.9349 33.0866 37.99C31.8121 38.1097 30.8444 37.1301 29.61 36.3039C27.6785 35.0112 26.5873 34.2064 24.7124 32.9449C22.5456 31.4871 23.9503 30.6858 25.1851 29.3763C25.5082 29.0336 31.1235 23.8187 31.2322 23.3457C31.2457 23.2865 31.2584 23.066 31.13 22.9495C31.0017 22.8331 30.8123 22.8729 30.6757 22.9046C30.4819 22.9495 27.3963 25.0318 21.4187 29.1517C20.5429 29.7657 19.7495 30.0649 19.0388 30.0492C18.2552 30.032 16.7479 29.5969 15.6273 29.225C14.253 28.7688 13.1607 28.5277 13.2558 27.753C13.3053 27.3495 13.8495 26.9368 14.8884 26.515Z" fill="white"/>
<defs>
<linearGradient id="paint0_linear_143_111" x1="27" y1="5" x2="27" y2="48.6735" gradientUnits="userSpaceOnUse">
<stop stop-color="#2AABEE"/>
<stop offset="1" stop-color="#229ED9"/>
</linearGradient>
</defs>
</svg>
