<svg width="1350" height="189" viewBox="0 0 1350 189" fill="none" xmlns="http://www.w3.org/2000/svg">
<path d="M1747.42 113.708C1844.05 181.088 1974.64 139.358 2027.86 110.071L2027.86 42.5L-356.462 42.5L-351.75 155.579C-306.556 133.914 -179.934 102.761 -35.0401 151.472C146.1 212.361 161.606 65.9216 320.18 132.218C478.757 198.515 501.371 182.745 639.633 142.722C762.463 107.166 883.327 164.207 932.461 163.57C1038.45 162.195 1148.21 79.393 1231.01 126.695C1311.12 172.462 1422.98 162.014 1485.1 131.758C1541.74 104.164 1650.79 46.3296 1747.42 113.708Z" fill="#303BCF"/>
<path d="M52.4909 135.691C-42.358 205.553 -178.512 163.864 -232.473 135.967L-232.473 31.5005L2147.33 31.5005L2147.33 123.109C2101.59 102.623 1978.91 74.7641 1835.33 127.217C1655.83 192.783 1636.53 46.7948 1479.73 117.181C1322.92 187.568 1299.91 172.39 1160.66 135.967C1036.94 103.608 922.64 166.697 873.505 167.334C789.571 168.423 673.9 79.256 592.356 128.689C513.459 176.519 386.735 178.862 328.837 146.754C276.242 113.957 147.339 65.8289 52.4909 135.691Z" fill="white"/>
</svg>
