<svg width="1410" height="116" viewBox="0 0 1410 116" fill="none" xmlns="http://www.w3.org/2000/svg">
<path d="M1965.88 74.5123C2062.51 7.13318 2193.1 48.8623 2246.32 78.1493L2246.32 116.501L-133.291 116.501L-133.291 32.6413C-88.0967 54.307 38.5249 85.4601 183.419 36.7487C364.56 -24.1404 380.065 122.299 538.64 56.0027C697.216 -10.294 719.831 5.47605 858.092 45.4984C980.923 81.0545 1101.79 24.0136 1150.92 24.6511C1256.91 26.0256 1366.67 108.828 1449.47 61.5256C1529.58 15.7584 1641.44 26.2065 1703.55 56.463C1760.2 84.057 1869.25 141.891 1965.88 74.5123Z" fill="#FC6B65"/>
<path d="M270.953 53.5291C176.104 -16.3332 44.4717 21.9951 -9.48856 49.8921L-9.48855 116.501L2370.5 116.501L2370.5 66.1105C2324.76 86.5969 2197.37 114.456 2053.79 62.0032C1874.29 -3.56298 1854.99 142.425 1698.19 72.0387C1541.39 1.65193 1518.37 16.8302 1379.12 53.2535C1255.41 85.6122 1141.1 22.5227 1091.97 21.8857C1008.03 20.7972 892.362 109.964 810.818 60.5306C731.921 12.7011 605.197 10.3575 547.3 42.4658C494.704 75.2628 365.801 123.391 270.953 53.5291Z" fill="white"/>
</svg>
