<svg width="54" height="54" viewBox="0 0 54 54" fill="none" xmlns="http://www.w3.org/2000/svg">
<rect x="2.5" y="2.5" width="49" height="49" rx="24.5" fill="#0DC143" stroke="white" stroke-width="5"/>
<path d="M36.8547 17.1105C34.4962 14.6826 31.2358 13.3646 27.9061 13.3646C20.8304 13.3646 15.1421 19.1222 15.2115 26.1285C15.2115 28.3484 15.8358 30.4988 16.8764 32.4412L15.0728 39.0313L21.8016 37.297C23.6746 38.3376 25.7556 38.8231 27.8367 38.8231C34.843 38.8231 40.5313 33.0655 40.5313 26.0592C40.5313 22.6601 39.2133 19.4691 36.8547 17.1105ZM27.9061 36.6727C26.0331 36.6727 24.1601 36.1871 22.5646 35.2159L22.1484 35.0078L18.125 36.0484L19.1655 32.0943L18.8881 31.6781C15.8358 26.7529 17.2926 20.2322 22.2872 17.1799C27.2818 14.1276 33.7331 15.5844 36.7854 20.579C39.8376 25.5736 38.3809 32.0249 33.3863 35.0772C31.7908 36.1177 29.8484 36.6727 27.9061 36.6727ZM34.0106 28.9727L33.2475 28.6258C33.2475 28.6258 32.1376 28.1403 31.4439 27.7934C31.3746 27.7934 31.3052 27.724 31.2358 27.724C31.0277 27.724 30.889 27.7934 30.7502 27.8628C30.7502 27.8628 30.6809 27.9322 29.7097 29.0421C29.6403 29.1808 29.5016 29.2502 29.3628 29.2502H29.2935C29.2241 29.2502 29.0854 29.1808 29.016 29.1114L28.6692 28.9727C27.9061 28.6258 27.2124 28.2096 26.6574 27.6547C26.5187 27.5159 26.3106 27.3772 26.1719 27.2385C25.6863 26.7529 25.2007 26.1979 24.8538 25.5736L24.7845 25.4349C24.7151 25.3655 24.7151 25.2961 24.6457 25.1574C24.6457 25.0186 24.6457 24.8799 24.7151 24.8105C24.7151 24.8105 24.9926 24.4637 25.2007 24.2556C25.3394 24.1168 25.4088 23.9087 25.5475 23.77C25.6863 23.5619 25.7556 23.2844 25.6863 23.0763C25.6169 22.7295 24.7845 20.8565 24.5764 20.4403C24.4376 20.2322 24.2989 20.1628 24.0908 20.0934H23.8827C23.7439 20.0934 23.5358 20.0934 23.3277 20.0934C23.189 20.0934 23.0502 20.1628 22.9115 20.1628L22.8421 20.2322C22.7034 20.3015 22.5646 20.4403 22.4259 20.5096C22.2872 20.6484 22.2178 20.7871 22.0791 20.9258C21.5935 21.5502 21.316 22.3132 21.316 23.0763C21.316 23.6313 21.4547 24.1862 21.6628 24.6718L21.7322 24.8799C22.3565 26.1979 23.189 27.3772 24.2989 28.4177L24.5764 28.6952C24.7845 28.9033 24.9926 29.0421 25.1313 29.2502C26.5881 30.4988 28.2529 31.4006 30.1259 31.8862C30.334 31.9556 30.6115 31.9556 30.8196 32.0249C31.0277 32.0249 31.3052 32.0249 31.5133 32.0249C31.8601 32.0249 32.2764 31.8862 32.5538 31.7475C32.7619 31.6087 32.9007 31.6087 33.0394 31.47L33.1782 31.3313C33.3169 31.1925 33.4556 31.1231 33.5944 30.9844C33.7331 30.8457 33.8719 30.7069 33.9412 30.5682C34.08 30.2907 34.1493 29.9439 34.2187 29.597C34.2187 29.4583 34.2187 29.2502 34.2187 29.1114C34.2187 29.1114 34.1493 29.0421 34.0106 28.9727Z" fill="white"/>
</svg>
